<svg width="4976" height="2760" xmlns="http://www.w3.org/2000/svg" xmlns:xlink="http://www.w3.org/1999/xlink" xml:space="preserve" overflow="hidden"><defs><clipPath id="clip0"><rect x="4913" y="1224" width="4976" height="2760"/></clipPath></defs><g clip-path="url(#clip0)" transform="translate(-4913 -1224)"><rect x="4914" y="1225" width="4973" height="2757" fill="#FFFFFF"/><g><path d="M5098.5 3329.61 9787.5 3329.61M5098.5 2916.6 9787.5 2916.6M5098.5 2503.58 9787.5 2503.58M5098.5 2090.57 9787.5 2090.57M5098.5 1677.56 9787.5 1677.56M5098.5 1264.5 9787.5 1264.5" stroke="#D9D9D9" stroke-width="3.4375" stroke-linejoin="round" stroke-miterlimit="10" fill="none"/></g><g><path d="M5142.17 3660.12 5201.17 3660.12 5201.17 3743 5142.17 3743ZM5288.17 3578.12 5347.18 3578.12 5347.18 3743 5288.17 3743ZM5435.18 3660.12 5494.18 3660.12 5494.18 3743 5435.18 3743ZM5582.18 3578.12 5640.19 3578.12 5640.19 3743 5582.18 3743ZM5728.19 3660.12 5787.19 3660.12 5787.19 3743 5728.19 3743ZM5875.19 3578.12 5933.19 3578.12 5933.19 3743 5875.19 3743ZM6021.2 3660.12 6080.2 3660.12 6080.2 3743 6021.2 3743ZM6607.22 3660.12 6666.22 3660.12 6666.22 3743 6607.22 3743ZM7047.23 3578.12 7105.23 3578.12 7105.23 3743 7047.23 3743ZM7193.24 3660.12 7252.24 3660.12 7252.24 3743 7193.24 3743ZM7486.25 3578.12 7545.25 3578.12 7545.25 3743 7486.25 3743ZM7633.25 3495.11 7692.25 3495.11 7692.25 3743 7633.25 3743ZM7780.25 3660.12 7838.26 3660.12 7838.26 3743 7780.25 3743ZM8219.27 3660.12 8278.27 3660.12 8278.27 3743 8219.27 3743ZM8366.27 3578.12 8424.28 3578.12 8424.28 3743 8366.27 3743ZM8512.28 3660.12 8571.28 3660.12 8571.28 3743 8512.28 3743ZM8659.28 3578.12 8717.29 3578.12 8717.29 3743 8659.28 3743ZM8805.29 3660.12 8864.29 3660.12 8864.29 3743 8805.29 3743ZM9098.3 3660.12 9157.3 3660.12 9157.3 3743 9098.3 3743ZM9538.31 3660.12 9597.31 3660.12 9597.31 3743 9538.31 3743Z" fill="#196B24"/></g><g><path d="M5098.5 3743.5 9787.5 3743.5" stroke="#D9D9D9" stroke-width="3.4375" stroke-linejoin="round" stroke-miterlimit="10" fill="none" fill-rule="evenodd"/></g><g><path d="M5098.5 3743.5 5098.5 3756.5M5244.67 3743.5 5244.67 3756.5M5391.68 3743.5 5391.68 3756.5M5537.68 3743.5 5537.68 3756.5M5684.69 3743.5 5684.69 3756.5M5830.69 3743.5 5830.69 3756.5M5977.7 3743.5 5977.7 3756.5M6123.7 3743.5 6123.7 3756.5M6270.71 3743.5 6270.71 3756.5M6416.71 3743.5 6416.71 3756.5M6563.72 3743.5 6563.72 3756.5M6709.72 3743.5 6709.72 3756.5M6856.73 3743.5 6856.73 3756.5M7002.73 3743.5 7002.73 3756.5M7149.73 3743.5 7149.73 3756.5M7295.74 3743.5 7295.74 3756.5M7442.74 3743.5 7442.74 3756.5M7589.75 3743.5 7589.75 3756.5M7735.75 3743.5 7735.75 3756.5M7882.76 3743.5 7882.76 3756.5M8028.76 3743.5 8028.76 3756.5M8175.77 3743.5 8175.77 3756.5M8321.77 3743.5 8321.77 3756.5M8468.78 3743.5 8468.78 3756.5M8614.78 3743.5 8614.78 3756.5M8761.79 3743.5 8761.79 3756.5M8907.79 3743.5 8907.79 3756.5M9054.8 3743.5 9054.8 3756.5M9200.8 3743.5 9200.8 3756.5M9347.81 3743.5 9347.81 3756.5M9493.81 3743.5 9493.81 3756.5M9640.82 3743.5 9640.82 3756.5M9787.5 3743.5 9787.5 3756.5" stroke="#D9D9D9" stroke-width="3.4375" stroke-linejoin="round" stroke-miterlimit="10" fill="none"/></g><g><path d="M5171 1274 5318.17 1288.04 5464.18 1307.04 5611.18 1333.04 5757.19 1369.04 5904.19 1417.05 6050.2 1482.05 6197.2 1567.05 6344.21 1676.05 6490.21 1812.06 6637.22 1976.06 6783.22 2163.07 6930.23 2368.08 7076.23 2580.08 7223.24 2786.09 7369.24 2977.1 7516.25 3145.1 7662.25 3286.11 7809.26 3399.11 7955.26 3488.11 8102.27 3556.12 8248.27 3607.12 8395.28 3644.12 8542.28 3672.12 8688.29 3692.12 8835.29 3706.12 8981.29 3717.12 9128.3 3724.12 9274.3 3730.12 9421.31 3733.12 9567.31 3736.12 9714 3738" stroke="#A02B93" stroke-width="10.3125" stroke-linecap="round" stroke-linejoin="round" stroke-miterlimit="10" fill="none"/></g><g><path d="M5182.48 1274.62C5182.48 1280.7 5177.56 1285.62 5171.48 1285.62 5165.41 1285.62 5160.48 1280.7 5160.48 1274.62 5160.48 1268.55 5165.41 1263.62 5171.48 1263.62 5177.56 1263.62 5182.48 1268.55 5182.48 1274.62Z" stroke="#A02B93" stroke-width="3.4375" stroke-linejoin="round" stroke-miterlimit="10" fill="#A02B93"/><path d="M5328.48 1287.62C5328.48 1293.7 5323.56 1298.62 5317.48 1298.62 5311.41 1298.62 5306.48 1293.7 5306.48 1287.62 5306.48 1281.55 5311.41 1276.62 5317.48 1276.62 5323.56 1276.62 5328.48 1281.55 5328.48 1287.62Z" stroke="#A02B93" stroke-width="3.4375" stroke-linejoin="round" stroke-miterlimit="10" fill="#A02B93"/><path d="M5475.48 1306.62C5475.48 1312.7 5470.56 1317.62 5464.48 1317.62 5458.41 1317.62 5453.48 1312.7 5453.48 1306.62 5453.48 1300.55 5458.41 1295.62 5464.48 1295.62 5470.56 1295.62 5475.48 1300.55 5475.48 1306.62Z" stroke="#A02B93" stroke-width="3.4375" stroke-linejoin="round" stroke-miterlimit="10" fill="#A02B93"/><path d="M5622.48 1332.62C5622.48 1338.7 5617.56 1343.62 5611.48 1343.62 5605.41 1343.62 5600.48 1338.7 5600.48 1332.62 5600.48 1326.55 5605.41 1321.62 5611.48 1321.62 5617.56 1321.62 5622.48 1326.55 5622.48 1332.62Z" stroke="#A02B93" stroke-width="3.4375" stroke-linejoin="round" stroke-miterlimit="10" fill="#A02B93"/><path d="M5768.48 1368.62C5768.48 1374.7 5763.56 1379.62 5757.48 1379.62 5751.41 1379.62 5746.48 1374.7 5746.48 1368.62 5746.48 1362.55 5751.41 1357.62 5757.48 1357.62 5763.56 1357.62 5768.48 1362.55 5768.48 1368.62Z" stroke="#A02B93" stroke-width="3.4375" stroke-linejoin="round" stroke-miterlimit="10" fill="#A02B93"/><path d="M5915.48 1417.62C5915.48 1423.7 5910.56 1428.62 5904.48 1428.62 5898.41 1428.62 5893.48 1423.7 5893.48 1417.62 5893.48 1411.55 5898.41 1406.62 5904.48 1406.62 5910.56 1406.62 5915.48 1411.55 5915.48 1417.62Z" stroke="#A02B93" stroke-width="3.4375" stroke-linejoin="round" stroke-miterlimit="10" fill="#A02B93"/><path d="M6061.48 1482.62C6061.48 1488.7 6056.56 1493.62 6050.48 1493.62 6044.41 1493.62 6039.48 1488.7 6039.48 1482.62 6039.48 1476.55 6044.41 1471.62 6050.48 1471.62 6056.56 1471.62 6061.48 1476.55 6061.48 1482.62Z" stroke="#A02B93" stroke-width="3.4375" stroke-linejoin="round" stroke-miterlimit="10" fill="#A02B93"/><path d="M6208.48 1567.62C6208.48 1573.7 6203.56 1578.62 6197.48 1578.62 6191.41 1578.62 6186.48 1573.7 6186.48 1567.62 6186.48 1561.55 6191.41 1556.62 6197.48 1556.62 6203.56 1556.62 6208.48 1561.55 6208.48 1567.62Z" stroke="#A02B93" stroke-width="3.4375" stroke-linejoin="round" stroke-miterlimit="10" fill="#A02B93"/><path d="M6354.48 1676.62C6354.48 1682.7 6349.56 1687.62 6343.48 1687.62 6337.41 1687.62 6332.48 1682.7 6332.48 1676.62 6332.48 1670.55 6337.41 1665.62 6343.48 1665.62 6349.56 1665.62 6354.48 1670.55 6354.48 1676.62Z" stroke="#A02B93" stroke-width="3.4375" stroke-linejoin="round" stroke-miterlimit="10" fill="#A02B93"/><path d="M6501.48 1812.62C6501.48 1818.7 6496.56 1823.62 6490.48 1823.62 6484.41 1823.62 6479.48 1818.7 6479.48 1812.62 6479.48 1806.55 6484.41 1801.62 6490.48 1801.62 6496.56 1801.62 6501.48 1806.55 6501.48 1812.62Z" stroke="#A02B93" stroke-width="3.4375" stroke-linejoin="round" stroke-miterlimit="10" fill="#A02B93"/><path d="M6647.48 1975.62C6647.48 1981.7 6642.56 1986.62 6636.48 1986.62 6630.41 1986.62 6625.48 1981.7 6625.48 1975.62 6625.48 1969.55 6630.41 1964.62 6636.48 1964.62 6642.56 1964.62 6647.48 1969.55 6647.48 1975.62Z" stroke="#A02B93" stroke-width="3.4375" stroke-linejoin="round" stroke-miterlimit="10" fill="#A02B93"/><path d="M6794.48 2163.62C6794.48 2169.7 6789.56 2174.62 6783.48 2174.62 6777.41 2174.62 6772.48 2169.7 6772.48 2163.62 6772.48 2157.55 6777.41 2152.62 6783.48 2152.62 6789.56 2152.62 6794.48 2157.55 6794.48 2163.62Z" stroke="#A02B93" stroke-width="3.4375" stroke-linejoin="round" stroke-miterlimit="10" fill="#A02B93"/><path d="M6940.48 2368.62C6940.48 2374.7 6935.56 2379.62 6929.48 2379.62 6923.41 2379.62 6918.48 2374.7 6918.48 2368.62 6918.48 2362.55 6923.41 2357.62 6929.48 2357.62 6935.56 2357.62 6940.48 2362.55 6940.48 2368.62Z" stroke="#A02B93" stroke-width="3.4375" stroke-linejoin="round" stroke-miterlimit="10" fill="#A02B93"/><path d="M7087.48 2579.62C7087.48 2585.7 7082.56 2590.62 7076.48 2590.62 7070.41 2590.62 7065.48 2585.7 7065.48 2579.62 7065.48 2573.55 7070.41 2568.62 7076.48 2568.62 7082.56 2568.62 7087.48 2573.55 7087.48 2579.62Z" stroke="#A02B93" stroke-width="3.4375" stroke-linejoin="round" stroke-miterlimit="10" fill="#A02B93"/><path d="M7233.48 2786.62C7233.48 2792.7 7228.56 2797.62 7222.48 2797.62 7216.41 2797.62 7211.48 2792.7 7211.48 2786.62 7211.48 2780.55 7216.41 2775.62 7222.48 2775.62 7228.56 2775.62 7233.48 2780.55 7233.48 2786.62Z" stroke="#A02B93" stroke-width="3.4375" stroke-linejoin="round" stroke-miterlimit="10" fill="#A02B93"/><path d="M7380.48 2977.62C7380.48 2983.7 7375.56 2988.62 7369.48 2988.62 7363.41 2988.62 7358.48 2983.7 7358.48 2977.62 7358.48 2971.55 7363.41 2966.62 7369.48 2966.62 7375.56 2966.62 7380.48 2971.55 7380.48 2977.62Z" stroke="#A02B93" stroke-width="3.4375" stroke-linejoin="round" stroke-miterlimit="10" fill="#A02B93"/><path d="M7527.48 3145.62C7527.48 3151.7 7522.56 3156.62 7516.48 3156.62 7510.41 3156.62 7505.48 3151.7 7505.48 3145.62 7505.48 3139.55 7510.41 3134.62 7516.48 3134.62 7522.56 3134.62 7527.48 3139.55 7527.48 3145.62Z" stroke="#A02B93" stroke-width="3.4375" stroke-linejoin="round" stroke-miterlimit="10" fill="#A02B93"/><path d="M7673.48 3285.62C7673.48 3291.7 7668.56 3296.62 7662.48 3296.62 7656.41 3296.62 7651.48 3291.7 7651.48 3285.62 7651.48 3279.55 7656.41 3274.62 7662.48 3274.62 7668.56 3274.62 7673.48 3279.55 7673.48 3285.62Z" stroke="#A02B93" stroke-width="3.4375" stroke-linejoin="round" stroke-miterlimit="10" fill="#A02B93"/><path d="M7820.48 3399.62C7820.48 3405.7 7815.56 3410.62 7809.48 3410.62 7803.41 3410.62 7798.48 3405.7 7798.48 3399.62 7798.48 3393.55 7803.41 3388.62 7809.48 3388.62 7815.56 3388.62 7820.48 3393.55 7820.48 3399.62Z" stroke="#A02B93" stroke-width="3.4375" stroke-linejoin="round" stroke-miterlimit="10" fill="#A02B93"/><path d="M7966.48 3487.62C7966.48 3493.7 7961.56 3498.62 7955.48 3498.62 7949.41 3498.62 7944.48 3493.7 7944.48 3487.62 7944.48 3481.55 7949.41 3476.62 7955.48 3476.62 7961.56 3476.62 7966.48 3481.55 7966.48 3487.62Z" stroke="#A02B93" stroke-width="3.4375" stroke-linejoin="round" stroke-miterlimit="10" fill="#A02B93"/><path d="M8113.48 3555.62C8113.48 3561.7 8108.56 3566.62 8102.48 3566.62 8096.41 3566.62 8091.48 3561.7 8091.48 3555.62 8091.48 3549.55 8096.41 3544.62 8102.48 3544.62 8108.56 3544.62 8113.48 3549.55 8113.48 3555.62Z" stroke="#A02B93" stroke-width="3.4375" stroke-linejoin="round" stroke-miterlimit="10" fill="#A02B93"/><path d="M8259.48 3606.62C8259.48 3612.7 8254.56 3617.62 8248.48 3617.62 8242.41 3617.62 8237.48 3612.7 8237.48 3606.62 8237.48 3600.55 8242.41 3595.62 8248.48 3595.62 8254.56 3595.62 8259.48 3600.55 8259.48 3606.62Z" stroke="#A02B93" stroke-width="3.4375" stroke-linejoin="round" stroke-miterlimit="10" fill="#A02B93"/><path d="M8406.48 3644.62C8406.48 3650.7 8401.56 3655.62 8395.48 3655.62 8389.41 3655.62 8384.48 3650.7 8384.48 3644.62 8384.48 3638.55 8389.41 3633.62 8395.48 3633.62 8401.56 3633.62 8406.48 3638.55 8406.48 3644.62Z" stroke="#A02B93" stroke-width="3.4375" stroke-linejoin="round" stroke-miterlimit="10" fill="#A02B93"/><path d="M8552.48 3671.62C8552.48 3677.7 8547.56 3682.62 8541.48 3682.62 8535.41 3682.62 8530.48 3677.7 8530.48 3671.62 8530.48 3665.55 8535.41 3660.62 8541.48 3660.62 8547.56 3660.62 8552.48 3665.55 8552.48 3671.62Z" stroke="#A02B93" stroke-width="3.4375" stroke-linejoin="round" stroke-miterlimit="10" fill="#A02B93"/><path d="M8699.48 3692.62C8699.48 3698.7 8694.56 3703.62 8688.48 3703.62 8682.41 3703.62 8677.48 3698.7 8677.48 3692.62 8677.48 3686.55 8682.41 3681.62 8688.48 3681.62 8694.56 3681.62 8699.48 3686.55 8699.48 3692.62Z" stroke="#A02B93" stroke-width="3.4375" stroke-linejoin="round" stroke-miterlimit="10" fill="#A02B93"/><path d="M8845.48 3706.62C8845.48 3712.7 8840.56 3717.62 8834.48 3717.62 8828.41 3717.62 8823.48 3712.7 8823.48 3706.62 8823.48 3700.55 8828.41 3695.62 8834.48 3695.62 8840.56 3695.62 8845.48 3700.55 8845.48 3706.62Z" stroke="#A02B93" stroke-width="3.4375" stroke-linejoin="round" stroke-miterlimit="10" fill="#A02B93"/><path d="M8992.48 3716.62C8992.48 3722.7 8987.56 3727.62 8981.48 3727.62 8975.41 3727.62 8970.48 3722.7 8970.48 3716.62 8970.48 3710.55 8975.41 3705.62 8981.48 3705.62 8987.56 3705.62 8992.48 3710.55 8992.48 3716.62Z" stroke="#A02B93" stroke-width="3.4375" stroke-linejoin="round" stroke-miterlimit="10" fill="#A02B93"/><path d="M9138.48 3724.62C9138.48 3730.7 9133.56 3735.62 9127.48 3735.62 9121.41 3735.62 9116.48 3730.7 9116.48 3724.62 9116.48 3718.55 9121.41 3713.62 9127.48 3713.62 9133.56 3713.62 9138.48 3718.55 9138.48 3724.62Z" stroke="#A02B93" stroke-width="3.4375" stroke-linejoin="round" stroke-miterlimit="10" fill="#A02B93"/><path d="M9285.48 3729.62C9285.48 3735.7 9280.56 3740.62 9274.48 3740.62 9268.41 3740.62 9263.48 3735.7 9263.48 3729.62 9263.48 3723.55 9268.41 3718.62 9274.48 3718.62 9280.56 3718.62 9285.48 3723.55 9285.48 3729.62Z" stroke="#A02B93" stroke-width="3.4375" stroke-linejoin="round" stroke-miterlimit="10" fill="#A02B93"/><path d="M9432.48 3733.62C9432.48 3739.7 9427.56 3744.62 9421.48 3744.62 9415.41 3744.62 9410.48 3739.7 9410.48 3733.62 9410.48 3727.55 9415.41 3722.62 9421.48 3722.62 9427.56 3722.62 9432.48 3727.55 9432.48 3733.62Z" stroke="#A02B93" stroke-width="3.4375" stroke-linejoin="round" stroke-miterlimit="10" fill="#A02B93"/><path d="M9578.48 3736.62C9578.48 3742.7 9573.56 3747.62 9567.48 3747.62 9561.41 3747.62 9556.48 3742.7 9556.48 3736.62 9556.48 3730.55 9561.41 3725.62 9567.48 3725.62 9573.56 3725.62 9578.48 3730.55 9578.48 3736.62Z" stroke="#A02B93" stroke-width="3.4375" stroke-linejoin="round" stroke-miterlimit="10" fill="#A02B93"/><path d="M9725.48 3738.62C9725.48 3744.7 9720.56 3749.62 9714.48 3749.62 9708.41 3749.62 9703.48 3744.7 9703.48 3738.62 9703.48 3732.55 9708.41 3727.62 9714.48 3727.62 9720.56 3727.62 9725.48 3732.55 9725.48 3738.62Z" stroke="#A02B93" stroke-width="3.4375" stroke-linejoin="round" stroke-miterlimit="10" fill="#A02B93"/></g><g><path d="M5171 1297 5318.17 1339.04 5464.18 1388.05 5611.18 1396.05 5757.19 1438.05 5904.19 1454.05 6050.2 1529.05 6197.2 1628.05 6344.21 1801.06 6490.21 1884.06 6637.22 1917.06 6783.22 1966.06 6930.23 2024.07 7076.23 2057.07 7223.24 2107.07 7369.24 2148.07 7516.25 2190.07 7662.25 2214.07 7809.26 2247.07 7955.26 2322.08 8102.27 2404.08 8248.27 2479.08 8395.28 2586.08 8542.28 2661.09 8688.29 2793.09 8835.29 2966.1 8981.29 3156.1 9128.3 3322.11 9274.3 3396.11 9421.31 3454.11 9567.31 3479.11 9714 3503" stroke="#156082" stroke-width="10.3125" stroke-linecap="round" stroke-linejoin="round" stroke-miterlimit="10" fill="none"/></g><g><path d="M5182.48 1297.62C5182.48 1303.7 5177.56 1308.62 5171.48 1308.62 5165.41 1308.62 5160.48 1303.7 5160.48 1297.62 5160.48 1291.55 5165.41 1286.62 5171.48 1286.62 5177.56 1286.62 5182.48 1291.55 5182.48 1297.62Z" stroke="#156082" stroke-width="3.4375" stroke-linejoin="round" stroke-miterlimit="10" fill="#156082"/><path d="M5328.48 1338.62C5328.48 1344.7 5323.56 1349.62 5317.48 1349.62 5311.41 1349.62 5306.48 1344.7 5306.48 1338.62 5306.48 1332.55 5311.41 1327.62 5317.48 1327.62 5323.56 1327.62 5328.48 1332.55 5328.48 1338.62Z" stroke="#156082" stroke-width="3.4375" stroke-linejoin="round" stroke-miterlimit="10" fill="#156082"/><path d="M5475.48 1388.62C5475.48 1394.7 5470.56 1399.62 5464.48 1399.62 5458.41 1399.62 5453.48 1394.7 5453.48 1388.62 5453.48 1382.55 5458.41 1377.62 5464.48 1377.62 5470.56 1377.62 5475.48 1382.55 5475.48 1388.62Z" stroke="#156082" stroke-width="3.4375" stroke-linejoin="round" stroke-miterlimit="10" fill="#156082"/><path d="M5622.48 1396.62C5622.48 1402.7 5617.56 1407.62 5611.48 1407.62 5605.41 1407.62 5600.48 1402.7 5600.48 1396.62 5600.48 1390.55 5605.41 1385.62 5611.48 1385.62 5617.56 1385.62 5622.48 1390.55 5622.48 1396.62Z" stroke="#156082" stroke-width="3.4375" stroke-linejoin="round" stroke-miterlimit="10" fill="#156082"/><path d="M5768.48 1437.62C5768.48 1443.7 5763.56 1448.62 5757.48 1448.62 5751.41 1448.62 5746.48 1443.7 5746.48 1437.62 5746.48 1431.55 5751.41 1426.62 5757.48 1426.62 5763.56 1426.62 5768.48 1431.55 5768.48 1437.62Z" stroke="#156082" stroke-width="3.4375" stroke-linejoin="round" stroke-miterlimit="10" fill="#156082"/><path d="M5915.48 1454.62C5915.48 1460.7 5910.56 1465.62 5904.48 1465.62 5898.41 1465.62 5893.48 1460.7 5893.48 1454.62 5893.48 1448.55 5898.41 1443.62 5904.48 1443.62 5910.56 1443.62 5915.48 1448.55 5915.48 1454.62Z" stroke="#156082" stroke-width="3.4375" stroke-linejoin="round" stroke-miterlimit="10" fill="#156082"/><path d="M6061.48 1528.62C6061.48 1534.7 6056.56 1539.62 6050.48 1539.62 6044.41 1539.62 6039.48 1534.7 6039.48 1528.62 6039.48 1522.55 6044.41 1517.62 6050.48 1517.62 6056.56 1517.62 6061.48 1522.55 6061.48 1528.62Z" stroke="#156082" stroke-width="3.4375" stroke-linejoin="round" stroke-miterlimit="10" fill="#156082"/><path d="M6208.48 1627.62C6208.48 1633.7 6203.56 1638.62 6197.48 1638.62 6191.41 1638.62 6186.48 1633.7 6186.48 1627.62 6186.48 1621.55 6191.41 1616.62 6197.48 1616.62 6203.56 1616.62 6208.48 1621.55 6208.48 1627.62Z" stroke="#156082" stroke-width="3.4375" stroke-linejoin="round" stroke-miterlimit="10" fill="#156082"/><path d="M6354.48 1801.62C6354.48 1807.7 6349.56 1812.62 6343.48 1812.62 6337.41 1812.62 6332.48 1807.7 6332.48 1801.62 6332.48 1795.55 6337.41 1790.62 6343.48 1790.62 6349.56 1790.62 6354.48 1795.55 6354.48 1801.62Z" stroke="#156082" stroke-width="3.4375" stroke-linejoin="round" stroke-miterlimit="10" fill="#156082"/><path d="M6501.48 1883.62C6501.48 1889.7 6496.56 1894.62 6490.48 1894.62 6484.41 1894.62 6479.48 1889.7 6479.48 1883.62 6479.48 1877.55 6484.41 1872.62 6490.48 1872.62 6496.56 1872.62 6501.48 1877.55 6501.48 1883.62Z" stroke="#156082" stroke-width="3.4375" stroke-linejoin="round" stroke-miterlimit="10" fill="#156082"/><path d="M6647.48 1916.62C6647.48 1922.7 6642.56 1927.62 6636.48 1927.62 6630.41 1927.62 6625.48 1922.7 6625.48 1916.62 6625.48 1910.55 6630.41 1905.62 6636.48 1905.62 6642.56 1905.62 6647.48 1910.55 6647.48 1916.62Z" stroke="#156082" stroke-width="3.4375" stroke-linejoin="round" stroke-miterlimit="10" fill="#156082"/><path d="M6794.48 1966.62C6794.48 1972.7 6789.56 1977.62 6783.48 1977.62 6777.41 1977.62 6772.48 1972.7 6772.48 1966.62 6772.48 1960.55 6777.41 1955.62 6783.48 1955.62 6789.56 1955.62 6794.48 1960.55 6794.48 1966.62Z" stroke="#156082" stroke-width="3.4375" stroke-linejoin="round" stroke-miterlimit="10" fill="#156082"/><path d="M6940.48 2024.62C6940.48 2030.7 6935.56 2035.62 6929.48 2035.62 6923.41 2035.62 6918.48 2030.7 6918.48 2024.62 6918.48 2018.55 6923.41 2013.62 6929.48 2013.62 6935.56 2013.62 6940.48 2018.55 6940.48 2024.62Z" stroke="#156082" stroke-width="3.4375" stroke-linejoin="round" stroke-miterlimit="10" fill="#156082"/><path d="M7087.48 2057.62C7087.48 2063.7 7082.56 2068.62 7076.48 2068.62 7070.41 2068.62 7065.48 2063.7 7065.48 2057.62 7065.48 2051.55 7070.41 2046.62 7076.48 2046.62 7082.56 2046.62 7087.48 2051.55 7087.48 2057.62Z" stroke="#156082" stroke-width="3.4375" stroke-linejoin="round" stroke-miterlimit="10" fill="#156082"/><path d="M7233.48 2107.62C7233.48 2113.7 7228.56 2118.62 7222.48 2118.62 7216.41 2118.62 7211.48 2113.7 7211.48 2107.62 7211.48 2101.55 7216.41 2096.62 7222.48 2096.62 7228.56 2096.62 7233.48 2101.55 7233.48 2107.62Z" stroke="#156082" stroke-width="3.4375" stroke-linejoin="round" stroke-miterlimit="10" fill="#156082"/><path d="M7380.48 2148.62C7380.48 2154.7 7375.56 2159.62 7369.48 2159.62 7363.41 2159.62 7358.48 2154.7 7358.48 2148.62 7358.48 2142.55 7363.41 2137.62 7369.48 2137.62 7375.56 2137.62 7380.48 2142.55 7380.48 2148.62Z" stroke="#156082" stroke-width="3.4375" stroke-linejoin="round" stroke-miterlimit="10" fill="#156082"/><path d="M7527.48 2189.62C7527.48 2195.7 7522.56 2200.62 7516.48 2200.62 7510.41 2200.62 7505.48 2195.7 7505.48 2189.62 7505.48 2183.55 7510.41 2178.62 7516.48 2178.62 7522.56 2178.62 7527.48 2183.55 7527.48 2189.62Z" stroke="#156082" stroke-width="3.4375" stroke-linejoin="round" stroke-miterlimit="10" fill="#156082"/><path d="M7673.48 2214.62C7673.48 2220.7 7668.56 2225.62 7662.48 2225.62 7656.41 2225.62 7651.48 2220.7 7651.48 2214.62 7651.48 2208.55 7656.41 2203.62 7662.48 2203.62 7668.56 2203.62 7673.48 2208.55 7673.48 2214.62Z" stroke="#156082" stroke-width="3.4375" stroke-linejoin="round" stroke-miterlimit="10" fill="#156082"/><path d="M7820.48 2247.62C7820.48 2253.7 7815.56 2258.62 7809.48 2258.62 7803.41 2258.62 7798.48 2253.7 7798.48 2247.62 7798.48 2241.55 7803.41 2236.62 7809.48 2236.62 7815.56 2236.62 7820.48 2241.55 7820.48 2247.62Z" stroke="#156082" stroke-width="3.4375" stroke-linejoin="round" stroke-miterlimit="10" fill="#156082"/><path d="M7966.48 2321.62C7966.48 2327.7 7961.56 2332.62 7955.48 2332.62 7949.41 2332.62 7944.48 2327.7 7944.48 2321.62 7944.48 2315.55 7949.41 2310.62 7955.48 2310.62 7961.56 2310.62 7966.48 2315.55 7966.48 2321.62Z" stroke="#156082" stroke-width="3.4375" stroke-linejoin="round" stroke-miterlimit="10" fill="#156082"/><path d="M8113.48 2404.62C8113.48 2410.7 8108.56 2415.62 8102.48 2415.62 8096.41 2415.62 8091.48 2410.7 8091.48 2404.62 8091.48 2398.55 8096.41 2393.62 8102.48 2393.62 8108.56 2393.62 8113.48 2398.55 8113.48 2404.62Z" stroke="#156082" stroke-width="3.4375" stroke-linejoin="round" stroke-miterlimit="10" fill="#156082"/><path d="M8259.48 2478.62C8259.48 2484.7 8254.56 2489.62 8248.48 2489.62 8242.41 2489.62 8237.48 2484.7 8237.48 2478.62 8237.48 2472.55 8242.41 2467.62 8248.48 2467.62 8254.56 2467.62 8259.48 2472.55 8259.48 2478.62Z" stroke="#156082" stroke-width="3.4375" stroke-linejoin="round" stroke-miterlimit="10" fill="#156082"/><path d="M8406.48 2586.62C8406.48 2592.7 8401.56 2597.62 8395.48 2597.62 8389.41 2597.62 8384.48 2592.7 8384.48 2586.62 8384.48 2580.55 8389.41 2575.62 8395.48 2575.62 8401.56 2575.62 8406.48 2580.55 8406.48 2586.62Z" stroke="#156082" stroke-width="3.4375" stroke-linejoin="round" stroke-miterlimit="10" fill="#156082"/><path d="M8552.48 2660.62C8552.48 2666.7 8547.56 2671.62 8541.48 2671.62 8535.41 2671.62 8530.48 2666.7 8530.48 2660.62 8530.48 2654.55 8535.41 2649.62 8541.48 2649.62 8547.56 2649.62 8552.48 2654.55 8552.48 2660.62Z" stroke="#156082" stroke-width="3.4375" stroke-linejoin="round" stroke-miterlimit="10" fill="#156082"/><path d="M8699.48 2792.62C8699.48 2798.7 8694.56 2803.62 8688.48 2803.62 8682.41 2803.62 8677.48 2798.7 8677.48 2792.62 8677.48 2786.55 8682.41 2781.62 8688.48 2781.62 8694.56 2781.62 8699.48 2786.55 8699.48 2792.62Z" stroke="#156082" stroke-width="3.4375" stroke-linejoin="round" stroke-miterlimit="10" fill="#156082"/><path d="M8845.48 2966.62C8845.48 2972.7 8840.56 2977.62 8834.48 2977.62 8828.41 2977.62 8823.48 2972.7 8823.48 2966.62 8823.48 2960.55 8828.41 2955.62 8834.48 2955.62 8840.56 2955.62 8845.48 2960.55 8845.48 2966.62Z" stroke="#156082" stroke-width="3.4375" stroke-linejoin="round" stroke-miterlimit="10" fill="#156082"/><path d="M8992.48 3156.62C8992.48 3162.7 8987.56 3167.62 8981.48 3167.62 8975.41 3167.62 8970.48 3162.7 8970.48 3156.62 8970.48 3150.55 8975.41 3145.62 8981.48 3145.62 8987.56 3145.62 8992.48 3150.55 8992.48 3156.62Z" stroke="#156082" stroke-width="3.4375" stroke-linejoin="round" stroke-miterlimit="10" fill="#156082"/><path d="M9138.48 3321.62C9138.48 3327.7 9133.56 3332.62 9127.48 3332.62 9121.41 3332.62 9116.48 3327.7 9116.48 3321.62 9116.48 3315.55 9121.41 3310.62 9127.48 3310.62 9133.56 3310.62 9138.48 3315.55 9138.48 3321.62Z" stroke="#156082" stroke-width="3.4375" stroke-linejoin="round" stroke-miterlimit="10" fill="#156082"/><path d="M9285.48 3396.62C9285.48 3402.7 9280.56 3407.62 9274.48 3407.62 9268.41 3407.62 9263.48 3402.7 9263.48 3396.62 9263.48 3390.55 9268.41 3385.62 9274.48 3385.62 9280.56 3385.62 9285.48 3390.55 9285.48 3396.62Z" stroke="#156082" stroke-width="3.4375" stroke-linejoin="round" stroke-miterlimit="10" fill="#156082"/><path d="M9432.48 3453.62C9432.48 3459.7 9427.56 3464.62 9421.48 3464.62 9415.41 3464.62 9410.48 3459.7 9410.48 3453.62 9410.48 3447.55 9415.41 3442.62 9421.48 3442.62 9427.56 3442.62 9432.48 3447.55 9432.48 3453.62Z" stroke="#156082" stroke-width="3.4375" stroke-linejoin="round" stroke-miterlimit="10" fill="#156082"/><path d="M9578.48 3478.62C9578.48 3484.7 9573.56 3489.62 9567.48 3489.62 9561.41 3489.62 9556.48 3484.7 9556.48 3478.62 9556.48 3472.55 9561.41 3467.62 9567.48 3467.62 9573.56 3467.62 9578.48 3472.55 9578.48 3478.62Z" stroke="#156082" stroke-width="3.4375" stroke-linejoin="round" stroke-miterlimit="10" fill="#156082"/><path d="M9725.48 3503.62C9725.48 3509.7 9720.56 3514.62 9714.48 3514.62 9708.41 3514.62 9703.48 3509.7 9703.48 3503.62 9703.48 3497.55 9708.41 3492.62 9714.48 3492.62 9720.56 3492.62 9725.48 3497.55 9725.48 3503.62Z" stroke="#156082" stroke-width="3.4375" stroke-linejoin="round" stroke-miterlimit="10" fill="#156082"/></g><g><path d="M5171 3660 5318.17 3495.11 5464.18 3412.11 5611.18 3247.11 5757.19 3165.1 5904.19 2999.1 6050.2 2917.1 6197.2 2917.1 6344.21 2917.1 6490.21 2917.1 6637.22 2834.09 6783.22 2834.09 6930.23 2834.09 7076.23 2669.09 7223.24 2586.08 7369.24 2586.08 7516.25 2421.08 7662.25 2173.07 7809.26 2090.07 7955.26 2090.07 8102.27 2090.07 8248.27 2008.07 8395.28 1843.06 8542.28 1760.06 8688.29 1595.05 8835.29 1512.05 8981.29 1512.05 9128.3 1429.05 9274.3 1429.05 9421.31 1429.05 9567.31 1347 9714 1347" stroke="#E97132" stroke-width="10.3125" stroke-linecap="round" stroke-linejoin="round" stroke-miterlimit="10" fill="none"/></g><g><path d="M5182.48 3660.62C5182.48 3666.7 5177.56 3671.62 5171.48 3671.62 5165.41 3671.62 5160.48 3666.7 5160.48 3660.62 5160.48 3654.55 5165.41 3649.62 5171.48 3649.62 5177.56 3649.62 5182.48 3654.55 5182.48 3660.62Z" stroke="#E97132" stroke-width="3.4375" stroke-linejoin="round" stroke-miterlimit="10" fill="#E97132"/><path d="M5328.48 3495.62C5328.48 3501.7 5323.56 3506.62 5317.48 3506.62 5311.41 3506.62 5306.48 3501.7 5306.48 3495.62 5306.48 3489.55 5311.41 3484.62 5317.48 3484.62 5323.56 3484.62 5328.48 3489.55 5328.48 3495.62Z" stroke="#E97132" stroke-width="3.4375" stroke-linejoin="round" stroke-miterlimit="10" fill="#E97132"/><path d="M5475.48 3412.62C5475.48 3418.7 5470.56 3423.62 5464.48 3423.62 5458.41 3423.62 5453.48 3418.7 5453.48 3412.62 5453.48 3406.55 5458.41 3401.62 5464.48 3401.62 5470.56 3401.62 5475.48 3406.55 5475.48 3412.62Z" stroke="#E97132" stroke-width="3.4375" stroke-linejoin="round" stroke-miterlimit="10" fill="#E97132"/><path d="M5622.48 3247.62C5622.48 3253.7 5617.56 3258.62 5611.48 3258.62 5605.41 3258.62 5600.48 3253.7 5600.48 3247.62 5600.48 3241.55 5605.41 3236.62 5611.48 3236.62 5617.56 3236.62 5622.48 3241.55 5622.48 3247.62Z" stroke="#E97132" stroke-width="3.4375" stroke-linejoin="round" stroke-miterlimit="10" fill="#E97132"/><path d="M5768.48 3164.62C5768.48 3170.7 5763.56 3175.62 5757.48 3175.62 5751.41 3175.62 5746.48 3170.7 5746.48 3164.62 5746.48 3158.55 5751.41 3153.62 5757.48 3153.62 5763.56 3153.62 5768.48 3158.55 5768.48 3164.62Z" stroke="#E97132" stroke-width="3.4375" stroke-linejoin="round" stroke-miterlimit="10" fill="#E97132"/><path d="M5915.48 2999.62C5915.48 3005.7 5910.56 3010.62 5904.48 3010.62 5898.41 3010.62 5893.48 3005.7 5893.48 2999.62 5893.48 2993.55 5898.41 2988.62 5904.48 2988.62 5910.56 2988.62 5915.48 2993.55 5915.48 2999.62Z" stroke="#E97132" stroke-width="3.4375" stroke-linejoin="round" stroke-miterlimit="10" fill="#E97132"/><path d="M6061.48 2916.62C6061.48 2922.7 6056.56 2927.62 6050.48 2927.62 6044.41 2927.62 6039.48 2922.7 6039.48 2916.62 6039.48 2910.55 6044.41 2905.62 6050.48 2905.62 6056.56 2905.62 6061.48 2910.55 6061.48 2916.62Z" stroke="#E97132" stroke-width="3.4375" stroke-linejoin="round" stroke-miterlimit="10" fill="#E97132"/><path d="M6208.48 2916.62C6208.48 2922.7 6203.56 2927.62 6197.48 2927.62 6191.41 2927.62 6186.48 2922.7 6186.48 2916.62 6186.48 2910.55 6191.41 2905.62 6197.48 2905.62 6203.56 2905.62 6208.48 2910.55 6208.48 2916.62Z" stroke="#E97132" stroke-width="3.4375" stroke-linejoin="round" stroke-miterlimit="10" fill="#E97132"/><path d="M6354.48 2916.62C6354.48 2922.7 6349.56 2927.62 6343.48 2927.62 6337.41 2927.62 6332.48 2922.7 6332.48 2916.62 6332.48 2910.55 6337.41 2905.62 6343.48 2905.62 6349.56 2905.62 6354.48 2910.55 6354.48 2916.62Z" stroke="#E97132" stroke-width="3.4375" stroke-linejoin="round" stroke-miterlimit="10" fill="#E97132"/><path d="M6501.48 2916.62C6501.48 2922.7 6496.56 2927.62 6490.48 2927.62 6484.41 2927.62 6479.48 2922.7 6479.48 2916.62 6479.48 2910.55 6484.41 2905.62 6490.48 2905.62 6496.56 2905.62 6501.48 2910.55 6501.48 2916.62Z" stroke="#E97132" stroke-width="3.4375" stroke-linejoin="round" stroke-miterlimit="10" fill="#E97132"/><path d="M6647.48 2834.62C6647.48 2840.7 6642.56 2845.62 6636.48 2845.62 6630.41 2845.62 6625.48 2840.7 6625.48 2834.62 6625.48 2828.55 6630.41 2823.62 6636.48 2823.62 6642.56 2823.62 6647.48 2828.55 6647.48 2834.62Z" stroke="#E97132" stroke-width="3.4375" stroke-linejoin="round" stroke-miterlimit="10" fill="#E97132"/><path d="M6794.48 2834.62C6794.48 2840.7 6789.56 2845.62 6783.48 2845.62 6777.41 2845.62 6772.48 2840.7 6772.48 2834.62 6772.48 2828.55 6777.41 2823.62 6783.48 2823.62 6789.56 2823.62 6794.48 2828.55 6794.48 2834.62Z" stroke="#E97132" stroke-width="3.4375" stroke-linejoin="round" stroke-miterlimit="10" fill="#E97132"/><path d="M6940.48 2834.62C6940.48 2840.7 6935.56 2845.62 6929.48 2845.62 6923.41 2845.62 6918.48 2840.7 6918.48 2834.62 6918.48 2828.55 6923.41 2823.62 6929.48 2823.62 6935.56 2823.62 6940.48 2828.55 6940.48 2834.62Z" stroke="#E97132" stroke-width="3.4375" stroke-linejoin="round" stroke-miterlimit="10" fill="#E97132"/><path d="M7087.48 2668.62C7087.48 2674.7 7082.56 2679.62 7076.48 2679.62 7070.41 2679.62 7065.48 2674.7 7065.48 2668.62 7065.48 2662.55 7070.41 2657.62 7076.48 2657.62 7082.56 2657.62 7087.48 2662.55 7087.48 2668.62Z" stroke="#E97132" stroke-width="3.4375" stroke-linejoin="round" stroke-miterlimit="10" fill="#E97132"/><path d="M7233.48 2586.62C7233.48 2592.7 7228.56 2597.62 7222.48 2597.62 7216.41 2597.62 7211.48 2592.7 7211.48 2586.62 7211.48 2580.55 7216.41 2575.62 7222.48 2575.62 7228.56 2575.62 7233.48 2580.55 7233.48 2586.62Z" stroke="#E97132" stroke-width="3.4375" stroke-linejoin="round" stroke-miterlimit="10" fill="#E97132"/><path d="M7380.48 2586.62C7380.48 2592.7 7375.56 2597.62 7369.48 2597.62 7363.41 2597.62 7358.48 2592.7 7358.48 2586.62 7358.48 2580.55 7363.41 2575.62 7369.48 2575.62 7375.56 2575.62 7380.48 2580.55 7380.48 2586.62Z" stroke="#E97132" stroke-width="3.4375" stroke-linejoin="round" stroke-miterlimit="10" fill="#E97132"/><path d="M7527.48 2421.62C7527.48 2427.7 7522.56 2432.62 7516.48 2432.62 7510.41 2432.62 7505.48 2427.7 7505.48 2421.62 7505.48 2415.55 7510.41 2410.62 7516.48 2410.62 7522.56 2410.62 7527.48 2415.55 7527.48 2421.62Z" stroke="#E97132" stroke-width="3.4375" stroke-linejoin="round" stroke-miterlimit="10" fill="#E97132"/><path d="M7673.48 2173.62C7673.48 2179.7 7668.56 2184.62 7662.48 2184.62 7656.41 2184.62 7651.48 2179.7 7651.48 2173.62 7651.48 2167.55 7656.41 2162.62 7662.48 2162.62 7668.56 2162.62 7673.48 2167.55 7673.48 2173.62Z" stroke="#E97132" stroke-width="3.4375" stroke-linejoin="round" stroke-miterlimit="10" fill="#E97132"/><path d="M7820.48 2090.62C7820.48 2096.7 7815.56 2101.62 7809.48 2101.62 7803.41 2101.62 7798.48 2096.7 7798.48 2090.62 7798.48 2084.55 7803.41 2079.62 7809.48 2079.62 7815.56 2079.62 7820.48 2084.55 7820.48 2090.62Z" stroke="#E97132" stroke-width="3.4375" stroke-linejoin="round" stroke-miterlimit="10" fill="#E97132"/><path d="M7966.48 2090.62C7966.48 2096.7 7961.56 2101.62 7955.48 2101.62 7949.41 2101.62 7944.48 2096.7 7944.48 2090.62 7944.48 2084.55 7949.41 2079.62 7955.48 2079.62 7961.56 2079.62 7966.48 2084.55 7966.48 2090.62Z" stroke="#E97132" stroke-width="3.4375" stroke-linejoin="round" stroke-miterlimit="10" fill="#E97132"/><path d="M8113.48 2090.62C8113.48 2096.7 8108.56 2101.62 8102.48 2101.62 8096.41 2101.62 8091.48 2096.7 8091.48 2090.62 8091.48 2084.55 8096.41 2079.62 8102.48 2079.62 8108.56 2079.62 8113.48 2084.55 8113.48 2090.62Z" stroke="#E97132" stroke-width="3.4375" stroke-linejoin="round" stroke-miterlimit="10" fill="#E97132"/><path d="M8259.48 2007.62C8259.48 2013.7 8254.56 2018.62 8248.48 2018.62 8242.41 2018.62 8237.48 2013.7 8237.48 2007.62 8237.48 2001.55 8242.41 1996.62 8248.48 1996.62 8254.56 1996.62 8259.48 2001.55 8259.48 2007.62Z" stroke="#E97132" stroke-width="3.4375" stroke-linejoin="round" stroke-miterlimit="10" fill="#E97132"/><path d="M8406.48 1842.62C8406.48 1848.7 8401.56 1853.62 8395.48 1853.62 8389.41 1853.62 8384.48 1848.7 8384.48 1842.62 8384.48 1836.55 8389.41 1831.62 8395.48 1831.62 8401.56 1831.62 8406.48 1836.55 8406.48 1842.62Z" stroke="#E97132" stroke-width="3.4375" stroke-linejoin="round" stroke-miterlimit="10" fill="#E97132"/><path d="M8552.48 1759.62C8552.48 1765.7 8547.56 1770.62 8541.48 1770.62 8535.41 1770.62 8530.48 1765.7 8530.48 1759.62 8530.48 1753.55 8535.41 1748.62 8541.48 1748.62 8547.56 1748.62 8552.48 1753.55 8552.48 1759.62Z" stroke="#E97132" stroke-width="3.4375" stroke-linejoin="round" stroke-miterlimit="10" fill="#E97132"/><path d="M8699.48 1594.62C8699.48 1600.7 8694.56 1605.62 8688.48 1605.62 8682.41 1605.62 8677.48 1600.7 8677.48 1594.62 8677.48 1588.55 8682.41 1583.62 8688.48 1583.62 8694.56 1583.62 8699.48 1588.55 8699.48 1594.62Z" stroke="#E97132" stroke-width="3.4375" stroke-linejoin="round" stroke-miterlimit="10" fill="#E97132"/><path d="M8845.48 1512.62C8845.48 1518.7 8840.56 1523.62 8834.48 1523.62 8828.41 1523.62 8823.48 1518.7 8823.48 1512.62 8823.48 1506.55 8828.41 1501.62 8834.48 1501.62 8840.56 1501.62 8845.48 1506.55 8845.48 1512.62Z" stroke="#E97132" stroke-width="3.4375" stroke-linejoin="round" stroke-miterlimit="10" fill="#E97132"/><path d="M8992.48 1512.62C8992.48 1518.7 8987.56 1523.62 8981.48 1523.62 8975.41 1523.62 8970.48 1518.7 8970.48 1512.62 8970.48 1506.55 8975.41 1501.62 8981.48 1501.62 8987.56 1501.62 8992.48 1506.55 8992.48 1512.62Z" stroke="#E97132" stroke-width="3.4375" stroke-linejoin="round" stroke-miterlimit="10" fill="#E97132"/><path d="M9138.48 1429.62C9138.48 1435.7 9133.56 1440.62 9127.48 1440.62 9121.41 1440.62 9116.48 1435.7 9116.48 1429.62 9116.48 1423.55 9121.41 1418.62 9127.48 1418.62 9133.56 1418.62 9138.48 1423.55 9138.48 1429.62Z" stroke="#E97132" stroke-width="3.4375" stroke-linejoin="round" stroke-miterlimit="10" fill="#E97132"/><path d="M9285.48 1429.62C9285.48 1435.7 9280.56 1440.62 9274.48 1440.62 9268.41 1440.62 9263.48 1435.7 9263.48 1429.62 9263.48 1423.55 9268.41 1418.62 9274.48 1418.62 9280.56 1418.62 9285.48 1423.55 9285.48 1429.62Z" stroke="#E97132" stroke-width="3.4375" stroke-linejoin="round" stroke-miterlimit="10" fill="#E97132"/><path d="M9432.48 1429.62C9432.48 1435.7 9427.56 1440.62 9421.48 1440.62 9415.41 1440.62 9410.48 1435.7 9410.48 1429.62 9410.48 1423.55 9415.41 1418.62 9421.48 1418.62 9427.56 1418.62 9432.48 1423.55 9432.48 1429.62Z" stroke="#E97132" stroke-width="3.4375" stroke-linejoin="round" stroke-miterlimit="10" fill="#E97132"/><path d="M9578.48 1346.62C9578.48 1352.7 9573.56 1357.62 9567.48 1357.62 9561.41 1357.62 9556.48 1352.7 9556.48 1346.62 9556.48 1340.55 9561.41 1335.62 9567.48 1335.62 9573.56 1335.62 9578.48 1340.55 9578.48 1346.62Z" stroke="#E97132" stroke-width="3.4375" stroke-linejoin="round" stroke-miterlimit="10" fill="#E97132"/><path d="M9725.48 1346.62C9725.48 1352.7 9720.56 1357.62 9714.48 1357.62 9708.41 1357.62 9703.48 1352.7 9703.48 1346.62 9703.48 1340.55 9708.41 1335.62 9714.48 1335.62 9720.56 1335.62 9725.48 1340.55 9725.48 1346.62Z" stroke="#E97132" stroke-width="3.4375" stroke-linejoin="round" stroke-miterlimit="10" fill="#E97132"/></g><g><path d="M5171 3660 5318.17 3495.11 5464.18 3495.11 5611.18 3330.11 5757.19 3247.11 5904.19 3247.11 6050.2 3165.1 6197.2 3247.11 6344.21 3247.11 6490.21 3330.11 6637.22 3247.11 6783.22 3247.11 6930.23 3412.11 7076.23 3247.11 7223.24 3247.11 7369.24 3330.11 7516.25 3165.1 7662.25 2917 7809.26 2999.1 7955.26 3165.1 8102.27 3247.11 8248.27 3165.1 8395.28 2999.1 8542.28 2999.1 8688.29 2917 8835.29 2999.1 8981.29 2917 9128.3 2917 9274.3 2917 9421.31 2917 9567.31 2999.1 9714 3165.1" stroke="#4EA72E" stroke-width="10.3125" stroke-linecap="round" stroke-linejoin="round" stroke-miterlimit="10" fill="none"/></g><g><path d="M5182.48 3660.62C5182.48 3666.7 5177.56 3671.62 5171.48 3671.62 5165.41 3671.62 5160.48 3666.7 5160.48 3660.62 5160.48 3654.55 5165.41 3649.62 5171.48 3649.62 5177.56 3649.62 5182.48 3654.55 5182.48 3660.62Z" stroke="#4EA72E" stroke-width="3.4375" stroke-linejoin="round" stroke-miterlimit="10" fill="#4EA72E"/><path d="M5328.48 3495.62C5328.48 3501.7 5323.56 3506.62 5317.48 3506.62 5311.41 3506.62 5306.48 3501.7 5306.48 3495.62 5306.48 3489.55 5311.41 3484.62 5317.48 3484.62 5323.56 3484.62 5328.48 3489.55 5328.48 3495.62Z" stroke="#4EA72E" stroke-width="3.4375" stroke-linejoin="round" stroke-miterlimit="10" fill="#4EA72E"/><path d="M5475.48 3495.62C5475.48 3501.7 5470.56 3506.62 5464.48 3506.62 5458.41 3506.62 5453.48 3501.7 5453.48 3495.62 5453.48 3489.55 5458.41 3484.62 5464.48 3484.62 5470.56 3484.62 5475.48 3489.55 5475.48 3495.62Z" stroke="#4EA72E" stroke-width="3.4375" stroke-linejoin="round" stroke-miterlimit="10" fill="#4EA72E"/><path d="M5622.48 3329.62C5622.48 3335.7 5617.56 3340.62 5611.48 3340.62 5605.41 3340.62 5600.48 3335.7 5600.48 3329.62 5600.48 3323.55 5605.41 3318.62 5611.48 3318.62 5617.56 3318.62 5622.48 3323.55 5622.48 3329.62Z" stroke="#4EA72E" stroke-width="3.4375" stroke-linejoin="round" stroke-miterlimit="10" fill="#4EA72E"/><path d="M5768.48 3247.62C5768.48 3253.7 5763.56 3258.62 5757.48 3258.62 5751.41 3258.62 5746.48 3253.7 5746.48 3247.62 5746.48 3241.55 5751.41 3236.62 5757.48 3236.62 5763.56 3236.62 5768.48 3241.55 5768.48 3247.62Z" stroke="#4EA72E" stroke-width="3.4375" stroke-linejoin="round" stroke-miterlimit="10" fill="#4EA72E"/><path d="M5915.48 3247.62C5915.48 3253.7 5910.56 3258.62 5904.48 3258.62 5898.41 3258.62 5893.48 3253.7 5893.48 3247.62 5893.48 3241.55 5898.41 3236.62 5904.48 3236.62 5910.56 3236.62 5915.48 3241.55 5915.48 3247.62Z" stroke="#4EA72E" stroke-width="3.4375" stroke-linejoin="round" stroke-miterlimit="10" fill="#4EA72E"/><path d="M6061.48 3164.62C6061.48 3170.7 6056.56 3175.62 6050.48 3175.62 6044.41 3175.62 6039.48 3170.7 6039.48 3164.62 6039.48 3158.55 6044.41 3153.62 6050.48 3153.62 6056.56 3153.62 6061.48 3158.55 6061.48 3164.62Z" stroke="#4EA72E" stroke-width="3.4375" stroke-linejoin="round" stroke-miterlimit="10" fill="#4EA72E"/><path d="M6208.48 3247.62C6208.48 3253.7 6203.56 3258.62 6197.48 3258.62 6191.41 3258.62 6186.48 3253.7 6186.48 3247.62 6186.48 3241.55 6191.41 3236.62 6197.48 3236.62 6203.56 3236.62 6208.48 3241.55 6208.48 3247.62Z" stroke="#4EA72E" stroke-width="3.4375" stroke-linejoin="round" stroke-miterlimit="10" fill="#4EA72E"/><path d="M6354.48 3247.62C6354.48 3253.7 6349.56 3258.62 6343.48 3258.62 6337.41 3258.62 6332.48 3253.7 6332.48 3247.62 6332.48 3241.55 6337.41 3236.62 6343.48 3236.62 6349.56 3236.62 6354.48 3241.55 6354.48 3247.62Z" stroke="#4EA72E" stroke-width="3.4375" stroke-linejoin="round" stroke-miterlimit="10" fill="#4EA72E"/><path d="M6501.48 3329.62C6501.48 3335.7 6496.56 3340.62 6490.48 3340.62 6484.41 3340.62 6479.48 3335.7 6479.48 3329.62 6479.48 3323.55 6484.41 3318.62 6490.48 3318.62 6496.56 3318.62 6501.48 3323.55 6501.48 3329.62Z" stroke="#4EA72E" stroke-width="3.4375" stroke-linejoin="round" stroke-miterlimit="10" fill="#4EA72E"/><path d="M6647.48 3247.62C6647.48 3253.7 6642.56 3258.62 6636.48 3258.62 6630.41 3258.62 6625.48 3253.7 6625.48 3247.62 6625.48 3241.55 6630.41 3236.62 6636.48 3236.62 6642.56 3236.62 6647.48 3241.55 6647.48 3247.62Z" stroke="#4EA72E" stroke-width="3.4375" stroke-linejoin="round" stroke-miterlimit="10" fill="#4EA72E"/><path d="M6794.48 3247.62C6794.48 3253.7 6789.56 3258.62 6783.48 3258.62 6777.41 3258.62 6772.48 3253.7 6772.48 3247.62 6772.48 3241.55 6777.41 3236.62 6783.48 3236.62 6789.56 3236.62 6794.48 3241.55 6794.48 3247.62Z" stroke="#4EA72E" stroke-width="3.4375" stroke-linejoin="round" stroke-miterlimit="10" fill="#4EA72E"/><path d="M6940.48 3412.62C6940.48 3418.7 6935.56 3423.62 6929.48 3423.62 6923.41 3423.62 6918.48 3418.7 6918.48 3412.62 6918.48 3406.55 6923.41 3401.62 6929.48 3401.62 6935.56 3401.62 6940.48 3406.55 6940.48 3412.62Z" stroke="#4EA72E" stroke-width="3.4375" stroke-linejoin="round" stroke-miterlimit="10" fill="#4EA72E"/><path d="M7087.48 3247.62C7087.48 3253.7 7082.56 3258.62 7076.48 3258.62 7070.41 3258.62 7065.48 3253.7 7065.48 3247.62 7065.48 3241.55 7070.41 3236.62 7076.48 3236.62 7082.56 3236.62 7087.48 3241.55 7087.48 3247.62Z" stroke="#4EA72E" stroke-width="3.4375" stroke-linejoin="round" stroke-miterlimit="10" fill="#4EA72E"/><path d="M7233.48 3247.62C7233.48 3253.7 7228.56 3258.62 7222.48 3258.62 7216.41 3258.62 7211.48 3253.7 7211.48 3247.62 7211.48 3241.55 7216.41 3236.62 7222.48 3236.62 7228.56 3236.62 7233.48 3241.55 7233.48 3247.62Z" stroke="#4EA72E" stroke-width="3.4375" stroke-linejoin="round" stroke-miterlimit="10" fill="#4EA72E"/><path d="M7380.48 3329.62C7380.48 3335.7 7375.56 3340.62 7369.48 3340.62 7363.41 3340.62 7358.48 3335.7 7358.48 3329.62 7358.48 3323.55 7363.41 3318.62 7369.48 3318.62 7375.56 3318.62 7380.48 3323.55 7380.48 3329.62Z" stroke="#4EA72E" stroke-width="3.4375" stroke-linejoin="round" stroke-miterlimit="10" fill="#4EA72E"/><path d="M7527.48 3164.62C7527.48 3170.7 7522.56 3175.62 7516.48 3175.62 7510.41 3175.62 7505.48 3170.7 7505.48 3164.62 7505.48 3158.55 7510.41 3153.62 7516.48 3153.62 7522.56 3153.62 7527.48 3158.55 7527.48 3164.62Z" stroke="#4EA72E" stroke-width="3.4375" stroke-linejoin="round" stroke-miterlimit="10" fill="#4EA72E"/><path d="M7673.48 2916.62C7673.48 2922.7 7668.56 2927.62 7662.48 2927.62 7656.41 2927.62 7651.48 2922.7 7651.48 2916.62 7651.48 2910.55 7656.41 2905.62 7662.48 2905.62 7668.56 2905.62 7673.48 2910.55 7673.48 2916.62Z" stroke="#4EA72E" stroke-width="3.4375" stroke-linejoin="round" stroke-miterlimit="10" fill="#4EA72E"/><path d="M7820.48 2999.62C7820.48 3005.7 7815.56 3010.62 7809.48 3010.62 7803.41 3010.62 7798.48 3005.7 7798.48 2999.62 7798.48 2993.55 7803.41 2988.62 7809.48 2988.62 7815.56 2988.62 7820.48 2993.55 7820.48 2999.62Z" stroke="#4EA72E" stroke-width="3.4375" stroke-linejoin="round" stroke-miterlimit="10" fill="#4EA72E"/><path d="M7966.48 3164.62C7966.48 3170.7 7961.56 3175.62 7955.48 3175.62 7949.41 3175.62 7944.48 3170.7 7944.48 3164.62 7944.48 3158.55 7949.41 3153.62 7955.48 3153.62 7961.56 3153.62 7966.48 3158.55 7966.48 3164.62Z" stroke="#4EA72E" stroke-width="3.4375" stroke-linejoin="round" stroke-miterlimit="10" fill="#4EA72E"/><path d="M8113.48 3247.62C8113.48 3253.7 8108.56 3258.62 8102.48 3258.62 8096.41 3258.62 8091.48 3253.7 8091.48 3247.62 8091.48 3241.55 8096.41 3236.62 8102.48 3236.62 8108.56 3236.62 8113.48 3241.55 8113.48 3247.62Z" stroke="#4EA72E" stroke-width="3.4375" stroke-linejoin="round" stroke-miterlimit="10" fill="#4EA72E"/><path d="M8259.48 3164.62C8259.48 3170.7 8254.56 3175.62 8248.48 3175.62 8242.41 3175.62 8237.48 3170.7 8237.48 3164.62 8237.48 3158.55 8242.41 3153.62 8248.48 3153.62 8254.56 3153.62 8259.48 3158.55 8259.48 3164.62Z" stroke="#4EA72E" stroke-width="3.4375" stroke-linejoin="round" stroke-miterlimit="10" fill="#4EA72E"/><path d="M8406.48 2999.62C8406.48 3005.7 8401.56 3010.62 8395.48 3010.62 8389.41 3010.62 8384.48 3005.7 8384.48 2999.62 8384.48 2993.55 8389.41 2988.62 8395.48 2988.62 8401.56 2988.62 8406.48 2993.55 8406.48 2999.62Z" stroke="#4EA72E" stroke-width="3.4375" stroke-linejoin="round" stroke-miterlimit="10" fill="#4EA72E"/><path d="M8552.48 2999.62C8552.48 3005.7 8547.56 3010.62 8541.48 3010.62 8535.41 3010.62 8530.48 3005.7 8530.48 2999.62 8530.48 2993.55 8535.41 2988.62 8541.48 2988.62 8547.56 2988.62 8552.48 2993.55 8552.48 2999.62Z" stroke="#4EA72E" stroke-width="3.4375" stroke-linejoin="round" stroke-miterlimit="10" fill="#4EA72E"/><path d="M8699.48 2916.62C8699.48 2922.7 8694.56 2927.62 8688.48 2927.62 8682.41 2927.62 8677.48 2922.7 8677.48 2916.62 8677.48 2910.55 8682.41 2905.62 8688.48 2905.62 8694.56 2905.62 8699.48 2910.55 8699.48 2916.62Z" stroke="#4EA72E" stroke-width="3.4375" stroke-linejoin="round" stroke-miterlimit="10" fill="#4EA72E"/><path d="M8845.48 2999.62C8845.48 3005.7 8840.56 3010.62 8834.48 3010.62 8828.41 3010.62 8823.48 3005.7 8823.48 2999.62 8823.48 2993.55 8828.41 2988.62 8834.48 2988.62 8840.56 2988.62 8845.48 2993.55 8845.48 2999.62Z" stroke="#4EA72E" stroke-width="3.4375" stroke-linejoin="round" stroke-miterlimit="10" fill="#4EA72E"/><path d="M8992.48 2916.62C8992.48 2922.7 8987.56 2927.62 8981.48 2927.62 8975.41 2927.62 8970.48 2922.7 8970.48 2916.62 8970.48 2910.55 8975.41 2905.62 8981.48 2905.62 8987.56 2905.62 8992.48 2910.55 8992.48 2916.62Z" stroke="#4EA72E" stroke-width="3.4375" stroke-linejoin="round" stroke-miterlimit="10" fill="#4EA72E"/><path d="M9138.48 2916.62C9138.48 2922.7 9133.56 2927.62 9127.48 2927.62 9121.41 2927.62 9116.48 2922.7 9116.48 2916.62 9116.48 2910.55 9121.41 2905.62 9127.48 2905.62 9133.56 2905.62 9138.48 2910.55 9138.48 2916.62Z" stroke="#4EA72E" stroke-width="3.4375" stroke-linejoin="round" stroke-miterlimit="10" fill="#4EA72E"/><path d="M9285.48 2916.62C9285.48 2922.7 9280.56 2927.62 9274.48 2927.62 9268.41 2927.62 9263.48 2922.7 9263.48 2916.62 9263.48 2910.55 9268.41 2905.62 9274.48 2905.62 9280.56 2905.62 9285.48 2910.55 9285.48 2916.62Z" stroke="#4EA72E" stroke-width="3.4375" stroke-linejoin="round" stroke-miterlimit="10" fill="#4EA72E"/><path d="M9432.48 2916.62C9432.48 2922.7 9427.56 2927.62 9421.48 2927.62 9415.41 2927.62 9410.48 2922.7 9410.48 2916.62 9410.48 2910.55 9415.41 2905.62 9421.48 2905.62 9427.56 2905.62 9432.48 2910.55 9432.48 2916.62Z" stroke="#4EA72E" stroke-width="3.4375" stroke-linejoin="round" stroke-miterlimit="10" fill="#4EA72E"/><path d="M9578.48 2999.62C9578.48 3005.7 9573.56 3010.62 9567.48 3010.62 9561.41 3010.62 9556.48 3005.7 9556.48 2999.62 9556.48 2993.55 9561.41 2988.62 9567.48 2988.62 9573.56 2988.62 9578.48 2993.55 9578.48 2999.62Z" stroke="#4EA72E" stroke-width="3.4375" stroke-linejoin="round" stroke-miterlimit="10" fill="#4EA72E"/><path d="M9725.48 3164.62C9725.48 3170.7 9720.56 3175.62 9714.48 3175.62 9708.41 3175.62 9703.48 3170.7 9703.48 3164.62 9703.48 3158.55 9708.41 3153.62 9714.48 3153.62 9720.56 3153.62 9725.48 3158.55 9725.48 3164.62Z" stroke="#4EA72E" stroke-width="3.4375" stroke-linejoin="round" stroke-miterlimit="10" fill="#4EA72E"/></g><g><path d="M5171 3733 5318.17 3719.12 5464.18 3700.12 5611.18 3674.12 5757.19 3638.12 5904.19 3590.12 6050.2 3525.12 6197.2 3440.11 6344.21 3331.11 6490.21 3195.1 6637.22 3031.1 6783.22 2844.09 6930.23 2639.09 7076.23 2427.08 7223.24 2221.07 7369.24 2030.07 7516.25 1862.06 7662.25 1722.06 7809.26 1608.05 7955.26 1519.05 8102.27 1451.05 8248.27 1401.05 8395.28 1363.04 8542.28 1335.04 8688.29 1315.04 8835.29 1301.04 8981.29 1290.04 9128.3 1283.04 9274.3 1278.04 9421.31 1274.04 9567.31 1271.04 9714 1269" stroke="#0F9ED5" stroke-width="10.3125" stroke-linecap="round" stroke-linejoin="round" stroke-miterlimit="10" fill="none"/></g><g><path d="M5182.48 3733.62C5182.48 3739.7 5177.56 3744.62 5171.48 3744.62 5165.41 3744.62 5160.48 3739.7 5160.48 3733.62 5160.48 3727.55 5165.41 3722.62 5171.48 3722.62 5177.56 3722.62 5182.48 3727.55 5182.48 3733.62Z" stroke="#0F9ED5" stroke-width="3.4375" stroke-linejoin="round" stroke-miterlimit="10" fill="#0F9ED5"/><path d="M5328.48 3719.62C5328.48 3725.7 5323.56 3730.62 5317.48 3730.62 5311.41 3730.62 5306.48 3725.7 5306.48 3719.62 5306.48 3713.55 5311.41 3708.62 5317.48 3708.62 5323.56 3708.62 5328.48 3713.55 5328.48 3719.62Z" stroke="#0F9ED5" stroke-width="3.4375" stroke-linejoin="round" stroke-miterlimit="10" fill="#0F9ED5"/><path d="M5475.48 3700.62C5475.48 3706.7 5470.56 3711.62 5464.48 3711.62 5458.41 3711.62 5453.48 3706.7 5453.48 3700.62 5453.48 3694.55 5458.41 3689.62 5464.48 3689.62 5470.56 3689.62 5475.48 3694.55 5475.48 3700.62Z" stroke="#0F9ED5" stroke-width="3.4375" stroke-linejoin="round" stroke-miterlimit="10" fill="#0F9ED5"/><path d="M5622.48 3674.62C5622.48 3680.7 5617.56 3685.62 5611.48 3685.62 5605.41 3685.62 5600.48 3680.7 5600.48 3674.62 5600.48 3668.55 5605.41 3663.62 5611.48 3663.62 5617.56 3663.62 5622.48 3668.55 5622.48 3674.62Z" stroke="#0F9ED5" stroke-width="3.4375" stroke-linejoin="round" stroke-miterlimit="10" fill="#0F9ED5"/><path d="M5768.48 3638.62C5768.48 3644.7 5763.56 3649.62 5757.48 3649.62 5751.41 3649.62 5746.48 3644.7 5746.48 3638.62 5746.48 3632.55 5751.41 3627.62 5757.48 3627.62 5763.56 3627.62 5768.48 3632.55 5768.48 3638.62Z" stroke="#0F9ED5" stroke-width="3.4375" stroke-linejoin="round" stroke-miterlimit="10" fill="#0F9ED5"/><path d="M5915.48 3590.62C5915.48 3596.7 5910.56 3601.62 5904.48 3601.62 5898.41 3601.62 5893.48 3596.7 5893.48 3590.62 5893.48 3584.55 5898.41 3579.62 5904.48 3579.62 5910.56 3579.62 5915.48 3584.55 5915.48 3590.62Z" stroke="#0F9ED5" stroke-width="3.4375" stroke-linejoin="round" stroke-miterlimit="10" fill="#0F9ED5"/><path d="M6061.48 3525.62C6061.48 3531.7 6056.56 3536.62 6050.48 3536.62 6044.41 3536.62 6039.48 3531.7 6039.48 3525.62 6039.48 3519.55 6044.41 3514.62 6050.48 3514.62 6056.56 3514.62 6061.48 3519.55 6061.48 3525.62Z" stroke="#0F9ED5" stroke-width="3.4375" stroke-linejoin="round" stroke-miterlimit="10" fill="#0F9ED5"/><path d="M6208.48 3440.62C6208.48 3446.7 6203.56 3451.62 6197.48 3451.62 6191.41 3451.62 6186.48 3446.7 6186.48 3440.62 6186.48 3434.55 6191.41 3429.62 6197.48 3429.62 6203.56 3429.62 6208.48 3434.55 6208.48 3440.62Z" stroke="#0F9ED5" stroke-width="3.4375" stroke-linejoin="round" stroke-miterlimit="10" fill="#0F9ED5"/><path d="M6354.48 3330.62C6354.48 3336.7 6349.56 3341.62 6343.48 3341.62 6337.41 3341.62 6332.48 3336.7 6332.48 3330.62 6332.48 3324.55 6337.41 3319.62 6343.48 3319.62 6349.56 3319.62 6354.48 3324.55 6354.48 3330.62Z" stroke="#0F9ED5" stroke-width="3.4375" stroke-linejoin="round" stroke-miterlimit="10" fill="#0F9ED5"/><path d="M6501.48 3194.62C6501.48 3200.7 6496.56 3205.62 6490.48 3205.62 6484.41 3205.62 6479.48 3200.7 6479.48 3194.62 6479.48 3188.55 6484.41 3183.62 6490.48 3183.62 6496.56 3183.62 6501.48 3188.55 6501.48 3194.62Z" stroke="#0F9ED5" stroke-width="3.4375" stroke-linejoin="round" stroke-miterlimit="10" fill="#0F9ED5"/><path d="M6647.48 3031.62C6647.48 3037.7 6642.56 3042.62 6636.48 3042.62 6630.41 3042.62 6625.48 3037.7 6625.48 3031.62 6625.48 3025.55 6630.41 3020.62 6636.48 3020.62 6642.56 3020.62 6647.48 3025.55 6647.48 3031.62Z" stroke="#0F9ED5" stroke-width="3.4375" stroke-linejoin="round" stroke-miterlimit="10" fill="#0F9ED5"/><path d="M6794.48 2843.62C6794.48 2849.7 6789.56 2854.62 6783.48 2854.62 6777.41 2854.62 6772.48 2849.7 6772.48 2843.62 6772.48 2837.55 6777.41 2832.62 6783.48 2832.62 6789.56 2832.62 6794.48 2837.55 6794.48 2843.62Z" stroke="#0F9ED5" stroke-width="3.4375" stroke-linejoin="round" stroke-miterlimit="10" fill="#0F9ED5"/><path d="M6940.48 2639.62C6940.48 2645.7 6935.56 2650.62 6929.48 2650.62 6923.41 2650.62 6918.48 2645.7 6918.48 2639.62 6918.48 2633.55 6923.41 2628.62 6929.48 2628.62 6935.56 2628.62 6940.48 2633.55 6940.48 2639.62Z" stroke="#0F9ED5" stroke-width="3.4375" stroke-linejoin="round" stroke-miterlimit="10" fill="#0F9ED5"/><path d="M7087.48 2427.62C7087.48 2433.7 7082.56 2438.62 7076.48 2438.62 7070.41 2438.62 7065.48 2433.7 7065.48 2427.62 7065.48 2421.55 7070.41 2416.62 7076.48 2416.62 7082.56 2416.62 7087.48 2421.55 7087.48 2427.62Z" stroke="#0F9ED5" stroke-width="3.4375" stroke-linejoin="round" stroke-miterlimit="10" fill="#0F9ED5"/><path d="M7233.48 2220.62C7233.48 2226.7 7228.56 2231.62 7222.48 2231.62 7216.41 2231.62 7211.48 2226.7 7211.48 2220.62 7211.48 2214.55 7216.41 2209.62 7222.48 2209.62 7228.56 2209.62 7233.48 2214.55 7233.48 2220.62Z" stroke="#0F9ED5" stroke-width="3.4375" stroke-linejoin="round" stroke-miterlimit="10" fill="#0F9ED5"/><path d="M7380.48 2029.62C7380.48 2035.7 7375.56 2040.62 7369.48 2040.62 7363.41 2040.62 7358.48 2035.7 7358.48 2029.62 7358.48 2023.55 7363.41 2018.62 7369.48 2018.62 7375.56 2018.62 7380.48 2023.55 7380.48 2029.62Z" stroke="#0F9ED5" stroke-width="3.4375" stroke-linejoin="round" stroke-miterlimit="10" fill="#0F9ED5"/><path d="M7527.48 1862.62C7527.48 1868.7 7522.56 1873.62 7516.48 1873.62 7510.41 1873.62 7505.48 1868.7 7505.48 1862.62 7505.48 1856.55 7510.41 1851.62 7516.48 1851.62 7522.56 1851.62 7527.48 1856.55 7527.48 1862.62Z" stroke="#0F9ED5" stroke-width="3.4375" stroke-linejoin="round" stroke-miterlimit="10" fill="#0F9ED5"/><path d="M7673.48 1721.62C7673.48 1727.7 7668.56 1732.62 7662.48 1732.62 7656.41 1732.62 7651.48 1727.7 7651.48 1721.62 7651.48 1715.55 7656.41 1710.62 7662.48 1710.62 7668.56 1710.62 7673.48 1715.55 7673.48 1721.62Z" stroke="#0F9ED5" stroke-width="3.4375" stroke-linejoin="round" stroke-miterlimit="10" fill="#0F9ED5"/><path d="M7820.48 1608.62C7820.48 1614.7 7815.56 1619.62 7809.48 1619.62 7803.41 1619.62 7798.48 1614.7 7798.48 1608.62 7798.48 1602.55 7803.41 1597.62 7809.48 1597.62 7815.56 1597.62 7820.48 1602.55 7820.48 1608.62Z" stroke="#0F9ED5" stroke-width="3.4375" stroke-linejoin="round" stroke-miterlimit="10" fill="#0F9ED5"/><path d="M7966.48 1519.62C7966.48 1525.7 7961.56 1530.62 7955.48 1530.62 7949.41 1530.62 7944.48 1525.7 7944.48 1519.62 7944.48 1513.55 7949.41 1508.62 7955.48 1508.62 7961.56 1508.62 7966.48 1513.55 7966.48 1519.62Z" stroke="#0F9ED5" stroke-width="3.4375" stroke-linejoin="round" stroke-miterlimit="10" fill="#0F9ED5"/><path d="M8113.48 1451.62C8113.48 1457.7 8108.56 1462.62 8102.48 1462.62 8096.41 1462.62 8091.48 1457.7 8091.48 1451.62 8091.48 1445.55 8096.41 1440.62 8102.48 1440.62 8108.56 1440.62 8113.48 1445.55 8113.48 1451.62Z" stroke="#0F9ED5" stroke-width="3.4375" stroke-linejoin="round" stroke-miterlimit="10" fill="#0F9ED5"/><path d="M8259.48 1400.62C8259.48 1406.7 8254.56 1411.62 8248.48 1411.62 8242.41 1411.62 8237.48 1406.7 8237.48 1400.62 8237.48 1394.55 8242.41 1389.62 8248.48 1389.62 8254.56 1389.62 8259.48 1394.55 8259.48 1400.62Z" stroke="#0F9ED5" stroke-width="3.4375" stroke-linejoin="round" stroke-miterlimit="10" fill="#0F9ED5"/><path d="M8406.48 1362.62C8406.48 1368.7 8401.56 1373.62 8395.48 1373.62 8389.41 1373.62 8384.48 1368.7 8384.48 1362.62 8384.48 1356.55 8389.41 1351.62 8395.48 1351.62 8401.56 1351.62 8406.48 1356.55 8406.48 1362.62Z" stroke="#0F9ED5" stroke-width="3.4375" stroke-linejoin="round" stroke-miterlimit="10" fill="#0F9ED5"/><path d="M8552.48 1335.62C8552.48 1341.7 8547.56 1346.62 8541.48 1346.62 8535.41 1346.62 8530.48 1341.7 8530.48 1335.62 8530.48 1329.55 8535.41 1324.62 8541.48 1324.62 8547.56 1324.62 8552.48 1329.55 8552.48 1335.62Z" stroke="#0F9ED5" stroke-width="3.4375" stroke-linejoin="round" stroke-miterlimit="10" fill="#0F9ED5"/><path d="M8699.48 1315.62C8699.48 1321.7 8694.56 1326.62 8688.48 1326.62 8682.41 1326.62 8677.48 1321.7 8677.48 1315.62 8677.48 1309.55 8682.41 1304.62 8688.48 1304.62 8694.56 1304.62 8699.48 1309.55 8699.48 1315.62Z" stroke="#0F9ED5" stroke-width="3.4375" stroke-linejoin="round" stroke-miterlimit="10" fill="#0F9ED5"/><path d="M8845.48 1300.62C8845.48 1306.7 8840.56 1311.62 8834.48 1311.62 8828.41 1311.62 8823.48 1306.7 8823.48 1300.62 8823.48 1294.55 8828.41 1289.62 8834.48 1289.62 8840.56 1289.62 8845.48 1294.55 8845.48 1300.62Z" stroke="#0F9ED5" stroke-width="3.4375" stroke-linejoin="round" stroke-miterlimit="10" fill="#0F9ED5"/><path d="M8992.48 1290.62C8992.48 1296.7 8987.56 1301.62 8981.48 1301.62 8975.41 1301.62 8970.48 1296.7 8970.48 1290.62 8970.48 1284.55 8975.41 1279.62 8981.48 1279.62 8987.56 1279.62 8992.48 1284.55 8992.48 1290.62Z" stroke="#0F9ED5" stroke-width="3.4375" stroke-linejoin="round" stroke-miterlimit="10" fill="#0F9ED5"/><path d="M9138.48 1282.62C9138.48 1288.7 9133.56 1293.62 9127.48 1293.62 9121.41 1293.62 9116.48 1288.7 9116.48 1282.62 9116.48 1276.55 9121.41 1271.62 9127.48 1271.62 9133.56 1271.62 9138.48 1276.55 9138.48 1282.62Z" stroke="#0F9ED5" stroke-width="3.4375" stroke-linejoin="round" stroke-miterlimit="10" fill="#0F9ED5"/><path d="M9285.48 1277.62C9285.48 1283.7 9280.56 1288.62 9274.48 1288.62 9268.41 1288.62 9263.48 1283.7 9263.48 1277.62 9263.48 1271.55 9268.41 1266.62 9274.48 1266.62 9280.56 1266.62 9285.48 1271.55 9285.48 1277.62Z" stroke="#0F9ED5" stroke-width="3.4375" stroke-linejoin="round" stroke-miterlimit="10" fill="#0F9ED5"/><path d="M9432.48 1273.62C9432.48 1279.7 9427.56 1284.62 9421.48 1284.62 9415.41 1284.62 9410.48 1279.7 9410.48 1273.62 9410.48 1267.55 9415.41 1262.62 9421.48 1262.62 9427.56 1262.62 9432.48 1267.55 9432.48 1273.62Z" stroke="#0F9ED5" stroke-width="3.4375" stroke-linejoin="round" stroke-miterlimit="10" fill="#0F9ED5"/><path d="M9578.48 1270.62C9578.48 1276.7 9573.56 1281.62 9567.48 1281.62 9561.41 1281.62 9556.48 1276.7 9556.48 1270.62 9556.48 1264.55 9561.41 1259.62 9567.48 1259.62 9573.56 1259.62 9578.48 1264.55 9578.48 1270.62Z" stroke="#0F9ED5" stroke-width="3.4375" stroke-linejoin="round" stroke-miterlimit="10" fill="#0F9ED5"/><path d="M9725.48 1269.62C9725.48 1275.7 9720.56 1280.62 9714.48 1280.62 9708.41 1280.62 9703.48 1275.7 9703.48 1269.62 9703.48 1263.55 9708.41 1258.62 9714.48 1258.62 9720.56 1258.62 9725.48 1263.55 9725.48 1269.62Z" stroke="#0F9ED5" stroke-width="3.4375" stroke-linejoin="round" stroke-miterlimit="10" fill="#0F9ED5"/></g><g><text fill="#595959" font-family="Aptos Narrow,Aptos Narrow_MSFontService,sans-serif" font-weight="400" font-stretch="semi-condensed" font-size="41" transform="matrix(1 0 0 1 9825.43 3755)">0</text></g><g><text fill="#595959" font-family="Aptos Narrow,Aptos Narrow_MSFontService,sans-serif" font-weight="400" font-stretch="semi-condensed" font-size="41" transform="matrix(1 0 0 1 9825.43 3342)">5</text></g><g><text fill="#595959" font-family="Aptos Narrow,Aptos Narrow_MSFontService,sans-serif" font-weight="400" font-stretch="semi-condensed" font-size="41" transform="matrix(1 0 0 1 9825.43 2928)">10</text></g><g><text fill="#595959" font-family="Aptos Narrow,Aptos Narrow_MSFontService,sans-serif" font-weight="400" font-stretch="semi-condensed" font-size="41" transform="matrix(1 0 0 1 9825.43 2515)">15</text></g><g><text fill="#595959" font-family="Aptos Narrow,Aptos Narrow_MSFontService,sans-serif" font-weight="400" font-stretch="semi-condensed" font-size="41" transform="matrix(1 0 0 1 9825.43 2102)">20</text></g><g><text fill="#595959" font-family="Aptos Narrow,Aptos Narrow_MSFontService,sans-serif" font-weight="400" font-stretch="semi-condensed" font-size="41" transform="matrix(1 0 0 1 9825.43 1689)">25</text></g><g><text fill="#595959" font-family="Aptos Narrow,Aptos Narrow_MSFontService,sans-serif" font-weight="400" font-stretch="semi-condensed" font-size="41" transform="matrix(1 0 0 1 9825.43 1276)">30</text></g><g><text fill="#595959" font-family="Aptos Narrow,Aptos Narrow_MSFontService,sans-serif" font-weight="400" font-stretch="semi-condensed" font-size="41" transform="matrix(1 0 0 1 5031.47 3755)">0</text></g><g><text fill="#595959" font-family="Aptos Narrow,Aptos Narrow_MSFontService,sans-serif" font-weight="400" font-stretch="semi-condensed" font-size="41" transform="matrix(1 0 0 1 5010.57 3342)">50</text></g><g><text fill="#595959" font-family="Aptos Narrow,Aptos Narrow_MSFontService,sans-serif" font-weight="400" font-stretch="semi-condensed" font-size="41" transform="matrix(1 0 0 1 4989.67 2928)">100</text></g><g><text fill="#595959" font-family="Aptos Narrow,Aptos Narrow_MSFontService,sans-serif" font-weight="400" font-stretch="semi-condensed" font-size="41" transform="matrix(1 0 0 1 4989.67 2515)">150</text></g><g><text fill="#595959" font-family="Aptos Narrow,Aptos Narrow_MSFontService,sans-serif" font-weight="400" font-stretch="semi-condensed" font-size="41" transform="matrix(1 0 0 1 4989.67 2102)">200</text></g><g><text fill="#595959" font-family="Aptos Narrow,Aptos Narrow_MSFontService,sans-serif" font-weight="400" font-stretch="semi-condensed" font-size="41" transform="matrix(1 0 0 1 4989.67 1689)">250</text></g><g><text fill="#595959" font-family="Aptos Narrow,Aptos Narrow_MSFontService,sans-serif" font-weight="400" font-stretch="semi-condensed" font-size="41" transform="matrix(1 0 0 1 4989.67 1276)">300</text></g><g><text fill="#595959" font-family="Aptos Narrow,Aptos Narrow_MSFontService,sans-serif" font-weight="400" font-stretch="semi-condensed" font-size="41" transform="matrix(1 0 0 1 5144.09 3808)">2/1</text></g><g><text fill="#595959" font-family="Aptos Narrow,Aptos Narrow_MSFontService,sans-serif" font-weight="400" font-stretch="semi-condensed" font-size="41" transform="matrix(1 0 0 1 5290.63 3808)">2/2</text></g><g><text fill="#595959" font-family="Aptos Narrow,Aptos Narrow_MSFontService,sans-serif" font-weight="400" font-stretch="semi-condensed" font-size="41" transform="matrix(1 0 0 1 5437.17 3808)">2/3</text></g><g><text fill="#595959" font-family="Aptos Narrow,Aptos Narrow_MSFontService,sans-serif" font-weight="400" font-stretch="semi-condensed" font-size="41" transform="matrix(1 0 0 1 5583.7 3808)">2/4</text></g><g><text fill="#595959" font-family="Aptos Narrow,Aptos Narrow_MSFontService,sans-serif" font-weight="400" font-stretch="semi-condensed" font-size="41" transform="matrix(1 0 0 1 5730.24 3808)">2/5</text></g><g><text fill="#595959" font-family="Aptos Narrow,Aptos Narrow_MSFontService,sans-serif" font-weight="400" font-stretch="semi-condensed" font-size="41" transform="matrix(1 0 0 1 5876.78 3808)">2/6</text></g><g><text fill="#595959" font-family="Aptos Narrow,Aptos Narrow_MSFontService,sans-serif" font-weight="400" font-stretch="semi-condensed" font-size="41" transform="matrix(1 0 0 1 6023.31 3808)">2/7</text></g><g><text fill="#595959" font-family="Aptos Narrow,Aptos Narrow_MSFontService,sans-serif" font-weight="400" font-stretch="semi-condensed" font-size="41" transform="matrix(1 0 0 1 6169.85 3808)">2/8</text></g><g><text fill="#595959" font-family="Aptos Narrow,Aptos Narrow_MSFontService,sans-serif" font-weight="400" font-stretch="semi-condensed" font-size="41" transform="matrix(1 0 0 1 6316.38 3808)">2/9</text></g><g><text fill="#595959" font-family="Aptos Narrow,Aptos Narrow_MSFontService,sans-serif" font-weight="400" font-stretch="semi-condensed" font-size="41" transform="matrix(1 0 0 1 6452.47 3808)">2/10</text></g><g><text fill="#595959" font-family="Aptos Narrow,Aptos Narrow_MSFontService,sans-serif" font-weight="400" font-stretch="semi-condensed" font-size="41" transform="matrix(1 0 0 1 6599.01 3808)">2/11</text></g><g><text fill="#595959" font-family="Aptos Narrow,Aptos Narrow_MSFontService,sans-serif" font-weight="400" font-stretch="semi-condensed" font-size="41" transform="matrix(1 0 0 1 6745.54 3808)">2/12</text></g><g><text fill="#595959" font-family="Aptos Narrow,Aptos Narrow_MSFontService,sans-serif" font-weight="400" font-stretch="semi-condensed" font-size="41" transform="matrix(1 0 0 1 6892.08 3808)">2/13</text></g><g><text fill="#595959" font-family="Aptos Narrow,Aptos Narrow_MSFontService,sans-serif" font-weight="400" font-stretch="semi-condensed" font-size="41" transform="matrix(1 0 0 1 7038.62 3808)">2/14</text></g><g><text fill="#595959" font-family="Aptos Narrow,Aptos Narrow_MSFontService,sans-serif" font-weight="400" font-stretch="semi-condensed" font-size="41" transform="matrix(1 0 0 1 7185.15 3808)">2/15</text></g><g><text fill="#595959" font-family="Aptos Narrow,Aptos Narrow_MSFontService,sans-serif" font-weight="400" font-stretch="semi-condensed" font-size="41" transform="matrix(1 0 0 1 7331.69 3808)">2/16</text></g><g><text fill="#595959" font-family="Aptos Narrow,Aptos Narrow_MSFontService,sans-serif" font-weight="400" font-stretch="semi-condensed" font-size="41" transform="matrix(1 0 0 1 7478.23 3808)">2/17</text></g><g><text fill="#595959" font-family="Aptos Narrow,Aptos Narrow_MSFontService,sans-serif" font-weight="400" font-stretch="semi-condensed" font-size="41" transform="matrix(1 0 0 1 7624.76 3808)">2/18</text></g><g><text fill="#595959" font-family="Aptos Narrow,Aptos Narrow_MSFontService,sans-serif" font-weight="400" font-stretch="semi-condensed" font-size="41" transform="matrix(1 0 0 1 7771.3 3808)">2/19</text></g><g><text fill="#595959" font-family="Aptos Narrow,Aptos Narrow_MSFontService,sans-serif" font-weight="400" font-stretch="semi-condensed" font-size="41" transform="matrix(1 0 0 1 7917.84 3808)">2/20</text></g><g><text fill="#595959" font-family="Aptos Narrow,Aptos Narrow_MSFontService,sans-serif" font-weight="400" font-stretch="semi-condensed" font-size="41" transform="matrix(1 0 0 1 8064.37 3808)">2/21</text></g><g><text fill="#595959" font-family="Aptos Narrow,Aptos Narrow_MSFontService,sans-serif" font-weight="400" font-stretch="semi-condensed" font-size="41" transform="matrix(1 0 0 1 8210.91 3808)">2/22</text></g><g><text fill="#595959" font-family="Aptos Narrow,Aptos Narrow_MSFontService,sans-serif" font-weight="400" font-stretch="semi-condensed" font-size="41" transform="matrix(1 0 0 1 8357.45 3808)">2/23</text></g><g><text fill="#595959" font-family="Aptos Narrow,Aptos Narrow_MSFontService,sans-serif" font-weight="400" font-stretch="semi-condensed" font-size="41" transform="matrix(1 0 0 1 8503.98 3808)">2/24</text></g><g><text fill="#595959" font-family="Aptos Narrow,Aptos Narrow_MSFontService,sans-serif" font-weight="400" font-stretch="semi-condensed" font-size="41" transform="matrix(1 0 0 1 8650.52 3808)">2/25</text></g><g><text fill="#595959" font-family="Aptos Narrow,Aptos Narrow_MSFontService,sans-serif" font-weight="400" font-stretch="semi-condensed" font-size="41" transform="matrix(1 0 0 1 8797.06 3808)">2/26</text></g><g><text fill="#595959" font-family="Aptos Narrow,Aptos Narrow_MSFontService,sans-serif" font-weight="400" font-stretch="semi-condensed" font-size="41" transform="matrix(1 0 0 1 8943.59 3808)">2/27</text></g><g><text fill="#595959" font-family="Aptos Narrow,Aptos Narrow_MSFontService,sans-serif" font-weight="400" font-stretch="semi-condensed" font-size="41" transform="matrix(1 0 0 1 9090.13 3808)">2/28</text></g><g><text fill="#595959" font-family="Aptos Narrow,Aptos Narrow_MSFontService,sans-serif" font-weight="400" font-stretch="semi-condensed" font-size="41" transform="matrix(1 0 0 1 9247.12 3808)">3/1</text></g><g><text fill="#595959" font-family="Aptos Narrow,Aptos Narrow_MSFontService,sans-serif" font-weight="400" font-stretch="semi-condensed" font-size="41" transform="matrix(1 0 0 1 9393.65 3808)">3/2</text></g><g><text fill="#595959" font-family="Aptos Narrow,Aptos Narrow_MSFontService,sans-serif" font-weight="400" font-stretch="semi-condensed" font-size="41" transform="matrix(1 0 0 1 9540.19 3808)">3/3</text></g><g><text fill="#595959" font-family="Aptos Narrow,Aptos Narrow_MSFontService,sans-serif" font-weight="400" font-stretch="semi-condensed" font-size="41" transform="matrix(1 0 0 1 9686.72 3808)">3/4</text></g><g><rect x="6007" y="3905" width="88" height="23" fill="#196B24"/></g><g><text fill="#595959" font-family="Aptos Narrow,Aptos Narrow_MSFontService,sans-serif" font-weight="400" font-stretch="semi-condensed" font-size="41" transform="matrix(1 0 0 1 6104.63 3928)">NG</text></g><g><text fill="#595959" font-family="Yu Gothic,Yu Gothic_MSFontService,sans-serif" font-weight="400" font-size="41" transform="matrix(1 0 0 1 6157.86 3928)"></text></g><g><path d="M6282 3916 6370 3916" stroke="#A02B93" stroke-width="10.3125" stroke-linecap="round" stroke-linejoin="round" stroke-miterlimit="10" fill="none" fill-rule="evenodd"/></g><g><path d="M6337 3916.5C6337 3922.31 6332.08 3927.02 6326 3927.02 6319.92 3927.02 6315 3922.31 6315 3916.5 6315 3910.69 6319.92 3905.98 6326 3905.98 6332.08 3905.98 6337 3910.69 6337 3916.5Z" stroke="#A02B93" stroke-width="3.4375" stroke-linejoin="round" stroke-miterlimit="10" fill="#A02B93"/></g><g><text fill="#595959" font-family="Yu Gothic,Yu Gothic_MSFontService,sans-serif" font-weight="400" font-size="41" transform="matrix(1 0 0 1 6379.51 3928)"></text></g><g><text fill="#595959" font-family="Aptos Narrow,Aptos Narrow_MSFontService,sans-serif" font-weight="400" font-stretch="semi-condensed" font-size="41" transform="matrix(1 0 0 1 6627.01 3928)">(</text></g><g><text fill="#595959" font-family="Yu Gothic,Yu Gothic_MSFontService,sans-serif" font-weight="400" font-size="41" transform="matrix(1 0 0 1 6639.56 3928)"></text></g><g><text fill="#595959" font-family="Aptos Narrow,Aptos Narrow_MSFontService,sans-serif" font-weight="400" font-stretch="semi-condensed" font-size="41" transform="matrix(1 0 0 1 6722.06 3928)">)</text></g><g><path d="M6818 3916 6906 3916" stroke="#156082" stroke-width="10.3125" stroke-linecap="round" stroke-linejoin="round" stroke-miterlimit="10" fill="none" fill-rule="evenodd"/></g><g><path d="M6872 3916.5C6872 3922.31 6867.08 3927.02 6861 3927.02 6854.92 3927.02 6850 3922.31 6850 3916.5 6850 3910.69 6854.92 3905.98 6861 3905.98 6867.08 3905.98 6872 3910.69 6872 3916.5Z" stroke="#156082" stroke-width="3.4375" stroke-linejoin="round" stroke-miterlimit="10" fill="#156082"/></g><g><text fill="#595959" font-family="Yu Gothic,Yu Gothic_MSFontService,sans-serif" font-weight="400" font-size="41" transform="matrix(1 0 0 1 6915.01 3928)"></text></g><g><text fill="#595959" font-family="Aptos Narrow,Aptos Narrow_MSFontService,sans-serif" font-weight="400" font-stretch="semi-condensed" font-size="41" transform="matrix(1 0 0 1 7162.51 3928)">(</text></g><g><text fill="#595959" font-family="Yu Gothic,Yu Gothic_MSFontService,sans-serif" font-weight="400" font-size="41" transform="matrix(1 0 0 1 7175.07 3928)"></text></g><g><text fill="#595959" font-family="Aptos Narrow,Aptos Narrow_MSFontService,sans-serif" font-weight="400" font-stretch="semi-condensed" font-size="41" transform="matrix(1 0 0 1 7257.57 3928)">)</text></g><g><path d="M7353 3916 7441 3916" stroke="#E97132" stroke-width="10.3125" stroke-linecap="round" stroke-linejoin="round" stroke-miterlimit="10" fill="none" fill-rule="evenodd"/></g><g><path d="M7408 3916.5C7408 3922.31 7403.08 3927.02 7397 3927.02 7390.92 3927.02 7386 3922.31 7386 3916.5 7386 3910.69 7390.92 3905.98 7397 3905.98 7403.08 3905.98 7408 3910.69 7408 3916.5Z" stroke="#E97132" stroke-width="3.4375" stroke-linejoin="round" stroke-miterlimit="10" fill="#E97132"/></g><g><text fill="#595959" font-family="Yu Gothic,Yu Gothic_MSFontService,sans-serif" font-weight="400" font-size="41" transform="matrix(1 0 0 1 7450.52 3928)"></text></g><g><text fill="#595959" font-family="Aptos Narrow,Aptos Narrow_MSFontService,sans-serif" font-weight="400" font-stretch="semi-condensed" font-size="41" transform="matrix(1 0 0 1 7698.02 3928)">(</text></g><g><text fill="#595959" font-family="Yu Gothic,Yu Gothic_MSFontService,sans-serif" font-weight="400" font-size="41" transform="matrix(1 0 0 1 7710.58 3928)"></text></g><g><text fill="#595959" font-family="Aptos Narrow,Aptos Narrow_MSFontService,sans-serif" font-weight="400" font-stretch="semi-condensed" font-size="41" transform="matrix(1 0 0 1 7793.08 3928)">)</text></g><g><path d="M7889 3916 7977 3916" stroke="#4EA72E" stroke-width="10.3125" stroke-linecap="round" stroke-linejoin="round" stroke-miterlimit="10" fill="none" fill-rule="evenodd"/></g><g><path d="M7943 3916.5C7943 3922.31 7938.08 3927.02 7932 3927.02 7925.92 3927.02 7921 3922.31 7921 3916.5 7921 3910.69 7925.92 3905.98 7932 3905.98 7938.08 3905.98 7943 3910.69 7943 3916.5Z" stroke="#4EA72E" stroke-width="3.4375" stroke-linejoin="round" stroke-miterlimit="10" fill="#4EA72E"/></g><g><text fill="#595959" font-family="Yu Gothic,Yu Gothic_MSFontService,sans-serif" font-weight="400" font-size="41" transform="matrix(1 0 0 1 7986.03 3928)"></text></g><g><path d="M8358 3916 8446 3916" stroke="#0F9ED5" stroke-width="10.3125" stroke-linecap="round" stroke-linejoin="round" stroke-miterlimit="10" fill="none" fill-rule="evenodd"/></g><g><path d="M8412 3916.5C8412 3922.31 8407.08 3927.02 8401 3927.02 8394.92 3927.02 8390 3922.31 8390 3916.5 8390 3910.69 8394.92 3905.98 8401 3905.98 8407.08 3905.98 8412 3910.69 8412 3916.5Z" stroke="#0F9ED5" stroke-width="3.4375" stroke-linejoin="round" stroke-miterlimit="10" fill="#0F9ED5"/></g><g><text fill="#595959" font-family="Yu Gothic,Yu Gothic_MSFontService,sans-serif" font-weight="400" font-size="41" transform="matrix(1 0 0 1 8455.17 3928)"></text></g><g><text fill="#595959" font-family="Aptos Narrow,Aptos Narrow_MSFontService,sans-serif" font-weight="400" font-stretch="semi-condensed" font-size="41" transform="matrix(1 0 0 1 8702.67 3928)">(</text></g><g><text fill="#595959" font-family="Yu Gothic,Yu Gothic_MSFontService,sans-serif" font-weight="400" font-size="41" transform="matrix(1 0 0 1 8715.23 3928)"></text></g><g><text fill="#595959" font-family="Aptos Narrow,Aptos Narrow_MSFontService,sans-serif" font-weight="400" font-stretch="semi-condensed" font-size="41" transform="matrix(1 0 0 1 8797.73 3928)">)</text></g><rect x="4914.5" y="1225.5" width="4973" height="2757" stroke="#D9D9D9" stroke-width="3.4375" stroke-linejoin="round" stroke-miterlimit="10" fill="none"/></g></svg>